<?xml version="1.0" encoding="UTF-8"?>
<svg xmlns="http://www.w3.org/2000/svg" width="348" height="405" viewBox="0 0 348 405" fill="none">
  <g filter="url(#filter0_d_16_970)">
    <path d="M35.8197 76.8502C28.8797 154.437 25.4599 196.752 23.7966 261.071C26.1834 286.056 30.724 296.852 48.7766 306.145C121.414 337.395 172.093 361.451 231.548 384.048C256.602 386.669 266.346 381.31 276.168 367.773C296.365 318.162 306.155 262.253 325.225 191.999C330.102 164.586 326.087 152.679 305.783 138.093C230.166 94.2136 119.874 33.352 119.874 33.352C119.874 33.352 99.0395 19.7999 85.5624 20.8509C69.5933 23.685 62.2289 28.1534 52.5733 37.8912C41.3974 49.409 37.7579 57.9507 35.8197 76.8502Z" fill="#F6901D"></path>
  </g>
  <path d="M39.6868 78.379C42.7256 156.216 44.7452 198.621 51.3207 262.625C56.883 287.099 62.7669 297.226 81.8597 304.134C157.897 325.839 211.237 343.216 273.092 358.024C298.277 357.42 307.255 350.859 315.265 336.177C328.953 284.391 331.512 227.689 341.442 155.573C342.773 127.761 337.267 116.465 315.265 104.596C234.658 70.7466 117.489 24.489 117.489 24.489C117.489 24.489 95.0918 13.7125 81.8597 16.4784C66.3842 21.3314 59.6517 26.7048 51.3207 37.5974C41.7095 50.4499 39.1921 59.3868 39.6868 78.379Z" fill="#FAFAFA"></path>
  <path d="M195.512 23.7227C176.478 23.7227 160.991 39.209 160.991 58.2438C160.991 77.2785 176.478 92.7649 195.512 92.7649C214.547 92.7649 230.034 77.2785 230.034 58.2438C230.034 39.209 214.547 23.7227 195.512 23.7227ZM187.178 43.1109C189.28 40.882 192.24 39.6555 195.512 39.6555C198.785 39.6555 201.718 40.8903 203.829 43.1308C205.968 45.4013 207.009 48.4517 206.763 51.7312C206.272 58.2438 201.227 63.5547 195.512 63.5547C189.798 63.5547 184.743 58.2438 184.262 51.7296C184.018 48.4235 185.057 45.3631 187.178 43.1109ZM195.512 87.454C191.613 87.4566 187.753 86.6761 184.161 85.1588C180.568 83.6415 177.318 81.4184 174.601 78.6212C176.157 76.4022 178.139 74.5155 180.433 73.0713C184.663 70.3594 190.017 68.8657 195.512 68.8657C201.008 68.8657 206.362 70.3594 210.587 73.0713C212.883 74.5148 214.867 76.4016 216.424 78.6212C213.708 81.4187 210.457 83.6421 206.865 85.1593C203.272 86.6766 199.412 87.4569 195.512 87.454Z" fill="black"></path>
  <path d="M156.568 125.906L164.056 109.106H167.896L175.408 125.906H171.328L165.184 111.074H166.72L160.552 125.906H156.568ZM160.312 122.306L161.344 119.354H169.984L171.04 122.306H160.312ZM176.887 125.906V112.994H180.463V116.642L179.959 115.586C180.343 114.674 180.959 113.986 181.807 113.522C182.655 113.042 183.687 112.802 184.903 112.802V116.258C184.743 116.242 184.599 116.234 184.471 116.234C184.343 116.218 184.207 116.21 184.063 116.21C183.039 116.21 182.207 116.506 181.567 117.098C180.943 117.674 180.631 118.578 180.631 119.81V125.906H176.887ZM187.153 125.906V112.994H190.897V125.906H187.153ZM189.025 111.194C188.337 111.194 187.777 110.994 187.345 110.594C186.913 110.194 186.697 109.698 186.697 109.106C186.697 108.514 186.913 108.018 187.345 107.618C187.777 107.218 188.337 107.018 189.025 107.018C189.713 107.018 190.273 107.21 190.705 107.594C191.137 107.962 191.353 108.442 191.353 109.034C191.353 109.658 191.137 110.178 190.705 110.594C190.289 110.994 189.729 111.194 189.025 111.194ZM209.544 126.194C208.216 126.194 206.992 125.986 205.872 125.57C204.768 125.138 203.8 124.53 202.968 123.746C202.152 122.962 201.512 122.042 201.048 120.986C200.6 119.93 200.376 118.77 200.376 117.506C200.376 116.242 200.6 115.082 201.048 114.026C201.512 112.97 202.16 112.05 202.992 111.266C203.824 110.482 204.8 109.882 205.92 109.466C207.04 109.034 208.272 108.818 209.616 108.818C211.104 108.818 212.44 109.066 213.624 109.562C214.824 110.058 215.832 110.778 216.648 111.722L214.152 114.026C213.544 113.386 212.88 112.914 212.16 112.61C211.44 112.29 210.656 112.13 209.808 112.13C208.992 112.13 208.248 112.258 207.576 112.514C206.904 112.77 206.32 113.138 205.824 113.618C205.344 114.098 204.968 114.666 204.696 115.322C204.44 115.978 204.312 116.706 204.312 117.506C204.312 118.29 204.44 119.01 204.696 119.666C204.968 120.322 205.344 120.898 205.824 121.394C206.32 121.874 206.896 122.242 207.552 122.498C208.224 122.754 208.96 122.882 209.76 122.882C210.528 122.882 211.272 122.762 211.992 122.522C212.728 122.266 213.44 121.842 214.128 121.25L216.336 124.058C215.424 124.746 214.36 125.274 213.144 125.642C211.944 126.01 210.744 126.194 209.544 126.194ZM212.784 123.554V117.242H216.336V124.058L212.784 123.554ZM221.334 126.098C220.694 126.098 220.142 125.882 219.678 125.45C219.23 125.002 219.006 124.434 219.006 123.746C219.006 123.058 219.23 122.506 219.678 122.09C220.142 121.658 220.694 121.442 221.334 121.442C221.99 121.442 222.542 121.658 222.99 122.09C223.438 122.506 223.662 123.058 223.662 123.746C223.662 124.434 223.438 125.002 222.99 125.45C222.542 125.882 221.99 126.098 221.334 126.098Z" fill="#0A0A0A"></path>
  <path d="M120.61 133.022C121.478 133.022 122.211 133.218 122.808 133.61C123.405 133.993 123.858 134.548 124.166 135.276C124.474 136.004 124.628 136.886 124.628 137.922C124.628 139.024 124.437 139.952 124.054 140.708C123.681 141.464 123.158 142.034 122.486 142.416C121.814 142.799 121.035 142.99 120.148 142.99C119.709 142.99 119.289 142.948 118.888 142.864C118.496 142.78 118.141 142.645 117.824 142.458L118.23 141.646C118.482 141.814 118.771 141.936 119.098 142.01C119.434 142.076 119.779 142.108 120.134 142.108C121.189 142.108 122.029 141.772 122.654 141.1C123.289 140.428 123.606 139.425 123.606 138.09C123.606 137.876 123.592 137.619 123.564 137.32C123.545 137.022 123.494 136.723 123.41 136.424L123.76 136.69C123.667 137.176 123.466 137.591 123.158 137.936C122.859 138.272 122.486 138.529 122.038 138.706C121.599 138.884 121.109 138.972 120.568 138.972C119.924 138.972 119.35 138.851 118.846 138.608C118.351 138.366 117.964 138.025 117.684 137.586C117.404 137.148 117.264 136.63 117.264 136.032C117.264 135.416 117.409 134.884 117.698 134.436C117.987 133.988 118.384 133.643 118.888 133.4C119.401 133.148 119.975 133.022 120.61 133.022ZM120.652 133.876C120.185 133.876 119.77 133.965 119.406 134.142C119.051 134.31 118.771 134.553 118.566 134.87C118.361 135.188 118.258 135.566 118.258 136.004C118.258 136.648 118.477 137.162 118.916 137.544C119.364 137.927 119.966 138.118 120.722 138.118C121.226 138.118 121.665 138.025 122.038 137.838C122.421 137.652 122.715 137.395 122.92 137.068C123.135 136.742 123.242 136.378 123.242 135.976C123.242 135.612 123.144 135.272 122.948 134.954C122.752 134.637 122.463 134.38 122.08 134.184C121.697 133.979 121.221 133.876 120.652 133.876ZM130.467 145.692C130.122 145.692 129.791 145.636 129.473 145.524C129.165 145.412 128.899 145.244 128.675 145.02L129.137 144.278C129.324 144.456 129.525 144.591 129.739 144.684C129.963 144.787 130.211 144.838 130.481 144.838C130.808 144.838 131.088 144.745 131.321 144.558C131.564 144.381 131.793 144.064 132.007 143.606L132.483 142.528L132.595 142.374L135.619 135.556H136.599L132.917 143.788C132.712 144.264 132.483 144.642 132.231 144.922C131.989 145.202 131.723 145.398 131.433 145.51C131.144 145.632 130.822 145.692 130.467 145.692ZM132.427 143.116L129.039 135.556H130.075L133.071 142.304L132.427 143.116ZM140.916 142.976C140.151 142.976 139.479 142.818 138.9 142.5C138.322 142.174 137.869 141.73 137.542 141.17C137.216 140.601 137.052 139.952 137.052 139.224C137.052 138.496 137.206 137.852 137.514 137.292C137.832 136.732 138.261 136.294 138.802 135.976C139.353 135.65 139.969 135.486 140.65 135.486C141.341 135.486 141.952 135.645 142.484 135.962C143.026 136.27 143.45 136.709 143.758 137.278C144.066 137.838 144.22 138.487 144.22 139.224C144.22 139.271 144.216 139.322 144.206 139.378C144.206 139.425 144.206 139.476 144.206 139.532H137.808V138.79H143.674L143.282 139.084C143.282 138.552 143.166 138.081 142.932 137.67C142.708 137.25 142.4 136.924 142.008 136.69C141.616 136.457 141.164 136.34 140.65 136.34C140.146 136.34 139.694 136.457 139.292 136.69C138.891 136.924 138.578 137.25 138.354 137.67C138.13 138.09 138.018 138.571 138.018 139.112V139.266C138.018 139.826 138.14 140.321 138.382 140.75C138.634 141.17 138.98 141.502 139.418 141.744C139.866 141.978 140.375 142.094 140.944 142.094C141.392 142.094 141.808 142.015 142.19 141.856C142.582 141.698 142.918 141.455 143.198 141.128L143.758 141.772C143.432 142.164 143.021 142.463 142.526 142.668C142.041 142.874 141.504 142.976 140.916 142.976ZM150.644 142.906V141.282L150.602 141.016V138.3C150.602 137.675 150.425 137.194 150.07 136.858C149.725 136.522 149.207 136.354 148.516 136.354C148.04 136.354 147.588 136.434 147.158 136.592C146.729 136.751 146.365 136.961 146.066 137.222L145.618 136.48C145.992 136.163 146.44 135.92 146.962 135.752C147.485 135.575 148.036 135.486 148.614 135.486C149.566 135.486 150.299 135.724 150.812 136.2C151.335 136.667 151.596 137.381 151.596 138.342V142.906H150.644ZM148.11 142.976C147.56 142.976 147.079 142.888 146.668 142.71C146.267 142.524 145.959 142.272 145.744 141.954C145.53 141.628 145.422 141.254 145.422 140.834C145.422 140.452 145.511 140.106 145.688 139.798C145.875 139.481 146.174 139.229 146.584 139.042C147.004 138.846 147.564 138.748 148.264 138.748H150.798V139.49H148.292C147.583 139.49 147.088 139.616 146.808 139.868C146.538 140.12 146.402 140.433 146.402 140.806C146.402 141.226 146.566 141.562 146.892 141.814C147.219 142.066 147.676 142.192 148.264 142.192C148.824 142.192 149.305 142.066 149.706 141.814C150.117 141.553 150.416 141.18 150.602 140.694L150.826 141.38C150.64 141.866 150.313 142.253 149.846 142.542C149.389 142.832 148.81 142.976 148.11 142.976ZM154.296 142.906V135.556H155.248V137.558L155.15 137.208C155.355 136.648 155.701 136.224 156.186 135.934C156.671 135.636 157.273 135.486 157.992 135.486V136.452C157.955 136.452 157.917 136.452 157.88 136.452C157.843 136.443 157.805 136.438 157.768 136.438C156.993 136.438 156.387 136.676 155.948 137.152C155.509 137.619 155.29 138.286 155.29 139.154V142.906H154.296ZM161.862 142.976C161.255 142.976 160.681 142.892 160.14 142.724C159.599 142.547 159.174 142.328 158.866 142.066L159.314 141.282C159.613 141.506 159.995 141.702 160.462 141.87C160.929 142.029 161.419 142.108 161.932 142.108C162.632 142.108 163.136 142.001 163.444 141.786C163.752 141.562 163.906 141.268 163.906 140.904C163.906 140.634 163.817 140.424 163.64 140.274C163.472 140.116 163.248 139.999 162.968 139.924C162.688 139.84 162.375 139.77 162.03 139.714C161.685 139.658 161.339 139.593 160.994 139.518C160.658 139.444 160.35 139.336 160.07 139.196C159.79 139.047 159.561 138.846 159.384 138.594C159.216 138.342 159.132 138.006 159.132 137.586C159.132 137.185 159.244 136.826 159.468 136.508C159.692 136.191 160.019 135.944 160.448 135.766C160.887 135.58 161.419 135.486 162.044 135.486C162.52 135.486 162.996 135.552 163.472 135.682C163.948 135.804 164.34 135.967 164.648 136.172L164.214 136.97C163.887 136.746 163.537 136.588 163.164 136.494C162.791 136.392 162.417 136.34 162.044 136.34C161.381 136.34 160.891 136.457 160.574 136.69C160.266 136.914 160.112 137.204 160.112 137.558C160.112 137.838 160.196 138.058 160.364 138.216C160.541 138.375 160.77 138.501 161.05 138.594C161.339 138.678 161.652 138.748 161.988 138.804C162.333 138.86 162.674 138.93 163.01 139.014C163.355 139.089 163.668 139.196 163.948 139.336C164.237 139.467 164.466 139.658 164.634 139.91C164.811 140.153 164.9 140.475 164.9 140.876C164.9 141.306 164.779 141.679 164.536 141.996C164.303 142.304 163.957 142.547 163.5 142.724C163.052 142.892 162.506 142.976 161.862 142.976ZM173.384 142.976C172.675 142.976 172.035 142.818 171.466 142.5C170.906 142.174 170.463 141.73 170.136 141.17C169.809 140.601 169.646 139.952 169.646 139.224C169.646 138.487 169.809 137.838 170.136 137.278C170.463 136.718 170.906 136.28 171.466 135.962C172.026 135.645 172.665 135.486 173.384 135.486C174.112 135.486 174.756 135.645 175.316 135.962C175.885 136.28 176.329 136.718 176.646 137.278C176.973 137.838 177.136 138.487 177.136 139.224C177.136 139.952 176.973 140.601 176.646 141.17C176.329 141.73 175.885 142.174 175.316 142.5C174.747 142.818 174.103 142.976 173.384 142.976ZM173.384 142.094C173.916 142.094 174.387 141.978 174.798 141.744C175.209 141.502 175.531 141.166 175.764 140.736C176.007 140.298 176.128 139.794 176.128 139.224C176.128 138.646 176.007 138.142 175.764 137.712C175.531 137.283 175.209 136.952 174.798 136.718C174.387 136.476 173.921 136.354 173.398 136.354C172.875 136.354 172.409 136.476 171.998 136.718C171.587 136.952 171.261 137.283 171.018 137.712C170.775 138.142 170.654 138.646 170.654 139.224C170.654 139.794 170.775 140.298 171.018 140.736C171.261 141.166 171.587 141.502 171.998 141.744C172.409 141.978 172.871 142.094 173.384 142.094ZM179.165 142.906V132.518H180.159V142.906H179.165ZM185.851 142.976C185.151 142.976 184.521 142.818 183.961 142.5C183.41 142.183 182.976 141.744 182.659 141.184C182.342 140.615 182.183 139.962 182.183 139.224C182.183 138.478 182.342 137.824 182.659 137.264C182.976 136.704 183.41 136.27 183.961 135.962C184.521 135.645 185.151 135.486 185.851 135.486C186.495 135.486 187.069 135.631 187.573 135.92C188.086 136.21 188.492 136.634 188.791 137.194C189.099 137.745 189.253 138.422 189.253 139.224C189.253 140.018 189.104 140.694 188.805 141.254C188.506 141.814 188.1 142.244 187.587 142.542C187.083 142.832 186.504 142.976 185.851 142.976ZM185.921 142.094C186.444 142.094 186.91 141.978 187.321 141.744C187.741 141.502 188.068 141.166 188.301 140.736C188.544 140.298 188.665 139.794 188.665 139.224C188.665 138.646 188.544 138.142 188.301 137.712C188.068 137.283 187.741 136.952 187.321 136.718C186.91 136.476 186.444 136.354 185.921 136.354C185.408 136.354 184.946 136.476 184.535 136.718C184.124 136.952 183.798 137.283 183.555 137.712C183.312 138.142 183.191 138.646 183.191 139.224C183.191 139.794 183.312 140.298 183.555 140.736C183.798 141.166 184.124 141.502 184.535 141.744C184.946 141.978 185.408 142.094 185.921 142.094ZM188.693 142.906V140.694L188.791 139.21L188.651 137.726V132.518H189.645V142.906H188.693ZM191.811 144.95L192.427 142.36L192.539 142.962C192.325 142.962 192.143 142.892 191.993 142.752C191.853 142.612 191.783 142.43 191.783 142.206C191.783 141.982 191.853 141.8 191.993 141.66C192.143 141.52 192.32 141.45 192.525 141.45C192.74 141.45 192.913 141.525 193.043 141.674C193.183 141.824 193.253 142.001 193.253 142.206C193.253 142.281 193.249 142.356 193.239 142.43C193.23 142.505 193.211 142.589 193.183 142.682C193.155 142.776 193.118 142.888 193.071 143.018L192.483 144.95H191.811ZM199.254 142.906V133.106H203.482C204.574 133.106 205.419 133.326 206.016 133.764C206.623 134.203 206.926 134.824 206.926 135.626C206.926 136.158 206.8 136.606 206.548 136.97C206.306 137.334 205.97 137.61 205.54 137.796C205.12 137.983 204.658 138.076 204.154 138.076L204.392 137.74C205.018 137.74 205.554 137.838 206.002 138.034C206.46 138.221 206.814 138.506 207.066 138.888C207.318 139.262 207.444 139.728 207.444 140.288C207.444 141.119 207.136 141.763 206.52 142.22C205.914 142.678 204.994 142.906 203.762 142.906H199.254ZM200.29 142.052H203.748C204.607 142.052 205.265 141.908 205.722 141.618C206.18 141.32 206.408 140.848 206.408 140.204C206.408 139.57 206.18 139.108 205.722 138.818C205.265 138.52 204.607 138.37 203.748 138.37H200.178V137.516H203.412C204.196 137.516 204.803 137.367 205.232 137.068C205.671 136.77 205.89 136.326 205.89 135.738C205.89 135.141 205.671 134.698 205.232 134.408C204.803 134.11 204.196 133.96 203.412 133.96H200.29V142.052ZM209.599 142.906V135.556H210.551V137.558L210.453 137.208C210.658 136.648 211.004 136.224 211.489 135.934C211.974 135.636 212.576 135.486 213.295 135.486V136.452C213.258 136.452 213.22 136.452 213.183 136.452C213.146 136.443 213.108 136.438 213.071 136.438C212.296 136.438 211.69 136.676 211.251 137.152C210.812 137.619 210.593 138.286 210.593 139.154V142.906H209.599ZM218.036 142.976C217.327 142.976 216.688 142.818 216.118 142.5C215.558 142.174 215.115 141.73 214.788 141.17C214.462 140.601 214.298 139.952 214.298 139.224C214.298 138.487 214.462 137.838 214.788 137.278C215.115 136.718 215.558 136.28 216.118 135.962C216.678 135.645 217.318 135.486 218.036 135.486C218.764 135.486 219.408 135.645 219.968 135.962C220.538 136.28 220.981 136.718 221.298 137.278C221.625 137.838 221.788 138.487 221.788 139.224C221.788 139.952 221.625 140.601 221.298 141.17C220.981 141.73 220.538 142.174 219.968 142.5C219.399 142.818 218.755 142.976 218.036 142.976ZM218.036 142.094C218.568 142.094 219.04 141.978 219.45 141.744C219.861 141.502 220.183 141.166 220.416 140.736C220.659 140.298 220.78 139.794 220.78 139.224C220.78 138.646 220.659 138.142 220.416 137.712C220.183 137.283 219.861 136.952 219.45 136.718C219.04 136.476 218.573 136.354 218.05 136.354C217.528 136.354 217.061 136.476 216.65 136.718C216.24 136.952 215.913 137.283 215.67 137.712C215.428 138.142 215.306 138.646 215.306 139.224C215.306 139.794 215.428 140.298 215.67 140.736C215.913 141.166 216.24 141.502 216.65 141.744C217.061 141.978 217.523 142.094 218.036 142.094ZM226.814 142.976C226.104 142.976 225.465 142.818 224.896 142.5C224.336 142.174 223.892 141.73 223.566 141.17C223.239 140.601 223.076 139.952 223.076 139.224C223.076 138.487 223.239 137.838 223.566 137.278C223.892 136.718 224.336 136.28 224.896 135.962C225.456 135.645 226.095 135.486 226.814 135.486C227.542 135.486 228.186 135.645 228.746 135.962C229.315 136.28 229.758 136.718 230.076 137.278C230.402 137.838 230.566 138.487 230.566 139.224C230.566 139.952 230.402 140.601 230.076 141.17C229.758 141.73 229.315 142.174 228.746 142.5C228.176 142.818 227.532 142.976 226.814 142.976ZM226.814 142.094C227.346 142.094 227.817 141.978 228.228 141.744C228.638 141.502 228.96 141.166 229.194 140.736C229.436 140.298 229.558 139.794 229.558 139.224C229.558 138.646 229.436 138.142 229.194 137.712C228.96 137.283 228.638 136.952 228.228 136.718C227.817 136.476 227.35 136.354 226.828 136.354C226.305 136.354 225.838 136.476 225.428 136.718C225.017 136.952 224.69 137.283 224.448 137.712C224.205 138.142 224.084 138.646 224.084 139.224C224.084 139.794 224.205 140.298 224.448 140.736C224.69 141.166 225.017 141.502 225.428 141.744C225.838 141.978 226.3 142.094 226.814 142.094ZM233.379 141.002L233.407 139.728L237.985 135.556H239.203L235.969 138.65L235.409 139.126L233.379 141.002ZM232.595 142.906V132.518H233.589V142.906H232.595ZM238.293 142.906L235.227 139.084L235.871 138.314L239.511 142.906H238.293ZM241.003 142.906V132.518H241.997V142.906H241.003ZM244.819 145.692C244.474 145.692 244.142 145.636 243.825 145.524C243.517 145.412 243.251 145.244 243.027 145.02L243.489 144.278C243.676 144.456 243.876 144.591 244.091 144.684C244.315 144.787 244.562 144.838 244.833 144.838C245.16 144.838 245.44 144.745 245.673 144.558C245.916 144.381 246.144 144.064 246.359 143.606L246.835 142.528L246.947 142.374L249.971 135.556H250.951L247.269 143.788C247.064 144.264 246.835 144.642 246.583 144.922C246.34 145.202 246.074 145.398 245.785 145.51C245.496 145.632 245.174 145.692 244.819 145.692ZM246.779 143.116L243.391 135.556H244.427L247.423 142.304L246.779 143.116ZM256.103 135.486C256.7 135.486 257.223 135.603 257.671 135.836C258.128 136.06 258.483 136.406 258.735 136.872C258.996 137.339 259.127 137.927 259.127 138.636V142.906H258.133V138.734C258.133 137.96 257.937 137.376 257.545 136.984C257.162 136.583 256.621 136.382 255.921 136.382C255.398 136.382 254.941 136.49 254.549 136.704C254.166 136.91 253.868 137.213 253.653 137.614C253.448 138.006 253.345 138.482 253.345 139.042V142.906H252.351V135.556H253.303V137.572L253.149 137.194C253.382 136.662 253.756 136.247 254.269 135.948C254.782 135.64 255.394 135.486 256.103 135.486Z" fill="#0A0A0A"></path>
  <path d="M83.0536 177.034L82.3496 179.994L82.2216 179.306C82.4776 179.306 82.6856 179.386 82.8456 179.546C83.0056 179.696 83.0856 179.898 83.0856 180.154C83.0856 180.41 83.0056 180.618 82.8456 180.778C82.6856 180.938 82.4883 181.018 82.2536 181.018C81.9976 181.018 81.7896 180.938 81.6296 180.778C81.4803 180.608 81.4056 180.4 81.4056 180.154C81.4056 180.058 81.411 179.973 81.4216 179.898C81.4323 179.824 81.4536 179.733 81.4856 179.626C81.5176 179.52 81.5603 179.392 81.6136 179.242L82.2856 177.034H83.0536ZM85.7736 177.034L85.0696 179.994L84.9416 179.306C85.1976 179.306 85.4056 179.386 85.5656 179.546C85.7256 179.696 85.8056 179.898 85.8056 180.154C85.8056 180.41 85.7256 180.618 85.5656 180.778C85.4056 180.938 85.2083 181.018 84.9736 181.018C84.7176 181.018 84.5096 180.938 84.3496 180.778C84.2003 180.608 84.1256 180.4 84.1256 180.154C84.1256 180.058 84.131 179.973 84.1416 179.898C84.1523 179.824 84.1736 179.733 84.2056 179.626C84.2376 179.52 84.2803 179.392 84.3336 179.242L85.0056 177.034H85.7736ZM88.491 188.906V177.706H89.675V188.906H88.491ZM99.9226 188.986C99.1333 188.986 98.5253 188.773 98.0986 188.346C97.672 187.92 97.4586 187.317 97.4586 186.538V178.65H98.5946V186.474C98.5946 186.965 98.7173 187.344 98.9626 187.61C99.2186 187.877 99.5813 188.01 100.051 188.01C100.552 188.01 100.968 187.866 101.299 187.578L101.699 188.394C101.475 188.597 101.203 188.746 100.883 188.842C100.573 188.938 100.253 188.986 99.9226 188.986ZM95.9546 181.45V180.506H101.155V181.45H95.9546ZM108.055 180.426C108.737 180.426 109.335 180.56 109.847 180.826C110.369 181.082 110.775 181.477 111.063 182.01C111.361 182.544 111.511 183.216 111.511 184.026V188.906H110.375V184.138C110.375 183.253 110.151 182.586 109.703 182.138C109.265 181.68 108.647 181.45 107.847 181.45C107.249 181.45 106.727 181.573 106.279 181.818C105.841 182.053 105.5 182.4 105.255 182.858C105.02 183.306 104.903 183.85 104.903 184.49V188.906H103.767V177.034H104.903V182.81L104.679 182.378C104.945 181.77 105.372 181.296 105.959 180.954C106.545 180.602 107.244 180.426 108.055 180.426ZM118.003 188.986C117.192 188.986 116.462 188.805 115.811 188.442C115.171 188.069 114.664 187.562 114.291 186.922C113.918 186.272 113.731 185.53 113.731 184.698C113.731 183.856 113.918 183.114 114.291 182.474C114.664 181.834 115.171 181.333 115.811 180.97C116.451 180.608 117.182 180.426 118.003 180.426C118.835 180.426 119.571 180.608 120.211 180.97C120.862 181.333 121.368 181.834 121.731 182.474C122.104 183.114 122.291 183.856 122.291 184.698C122.291 185.53 122.104 186.272 121.731 186.922C121.368 187.562 120.862 188.069 120.211 188.442C119.56 188.805 118.824 188.986 118.003 188.986ZM118.003 187.978C118.611 187.978 119.15 187.845 119.619 187.578C120.088 187.301 120.456 186.917 120.723 186.426C121 185.925 121.139 185.349 121.139 184.698C121.139 184.037 121 183.461 120.723 182.97C120.456 182.48 120.088 182.101 119.619 181.834C119.15 181.557 118.616 181.418 118.019 181.418C117.422 181.418 116.888 181.557 116.419 181.834C115.95 182.101 115.576 182.48 115.299 182.97C115.022 183.461 114.883 184.037 114.883 184.698C114.883 185.349 115.022 185.925 115.299 186.426C115.576 186.917 115.95 187.301 116.419 187.578C116.888 187.845 117.416 187.978 118.003 187.978ZM128.082 188.986C127.368 188.986 126.744 188.853 126.21 188.586C125.677 188.32 125.261 187.92 124.962 187.386C124.674 186.853 124.53 186.186 124.53 185.386V180.506H125.666V185.258C125.666 186.154 125.885 186.832 126.322 187.29C126.77 187.738 127.394 187.962 128.194 187.962C128.781 187.962 129.288 187.845 129.714 187.61C130.152 187.365 130.482 187.013 130.706 186.554C130.941 186.096 131.058 185.546 131.058 184.906V180.506H132.194V188.906H131.106V186.602L131.282 187.018C131.016 187.637 130.6 188.122 130.034 188.474C129.48 188.816 128.829 188.986 128.082 188.986ZM138.944 192.09C138.176 192.09 137.44 191.978 136.736 191.754C136.032 191.53 135.462 191.21 135.024 190.794L135.6 189.93C135.995 190.282 136.48 190.56 137.056 190.762C137.643 190.976 138.262 191.082 138.912 191.082C139.979 191.082 140.763 190.832 141.264 190.33C141.766 189.84 142.016 189.072 142.016 188.026V185.93L142.176 184.49L142.064 183.05V180.506H143.152V187.882C143.152 189.333 142.795 190.394 142.08 191.066C141.376 191.749 140.331 192.09 138.944 192.09ZM138.736 188.586C137.936 188.586 137.216 188.416 136.576 188.074C135.936 187.722 135.43 187.237 135.056 186.618C134.694 186 134.512 185.29 134.512 184.49C134.512 183.69 134.694 182.986 135.056 182.378C135.43 181.76 135.936 181.28 136.576 180.938C137.216 180.597 137.936 180.426 138.736 180.426C139.483 180.426 140.155 180.581 140.752 180.89C141.35 181.2 141.824 181.658 142.176 182.266C142.528 182.874 142.704 183.616 142.704 184.49C142.704 185.365 142.528 186.106 142.176 186.714C141.824 187.322 141.35 187.786 140.752 188.106C140.155 188.426 139.483 188.586 138.736 188.586ZM138.848 187.578C139.467 187.578 140.016 187.45 140.496 187.194C140.976 186.928 141.355 186.565 141.632 186.106C141.91 185.637 142.048 185.098 142.048 184.49C142.048 183.882 141.91 183.349 141.632 182.89C141.355 182.432 140.976 182.074 140.496 181.818C140.016 181.552 139.467 181.418 138.848 181.418C138.24 181.418 137.691 181.552 137.2 181.818C136.72 182.074 136.342 182.432 136.064 182.89C135.798 183.349 135.664 183.882 135.664 184.49C135.664 185.098 135.798 185.637 136.064 186.106C136.342 186.565 136.72 186.928 137.2 187.194C137.691 187.45 138.24 187.578 138.848 187.578ZM150.601 180.426C151.284 180.426 151.881 180.56 152.393 180.826C152.916 181.082 153.321 181.477 153.609 182.01C153.908 182.544 154.057 183.216 154.057 184.026V188.906H152.921V184.138C152.921 183.253 152.697 182.586 152.249 182.138C151.812 181.68 151.193 181.45 150.393 181.45C149.796 181.45 149.273 181.573 148.825 181.818C148.388 182.053 148.047 182.4 147.801 182.858C147.567 183.306 147.449 183.85 147.449 184.49V188.906H146.313V177.034H147.449V182.81L147.225 182.378C147.492 181.77 147.919 181.296 148.505 180.954C149.092 180.602 149.791 180.426 150.601 180.426ZM159.782 188.986C158.993 188.986 158.385 188.773 157.958 188.346C157.531 187.92 157.318 187.317 157.318 186.538V178.65H158.454V186.474C158.454 186.965 158.577 187.344 158.822 187.61C159.078 187.877 159.441 188.01 159.91 188.01C160.411 188.01 160.827 187.866 161.158 187.578L161.558 188.394C161.334 188.597 161.062 188.746 160.742 188.842C160.433 188.938 160.113 188.986 159.782 188.986ZM155.814 181.45V180.506H161.014V181.45H155.814ZM168.053 188.906V177.706H169.237V188.906H168.053ZM178.541 188.906L175.373 180.506H176.461L179.341 188.298H178.845L181.805 180.506H182.781L185.709 188.298H185.213L188.141 180.506H189.181L185.997 188.906H184.925L182.109 181.578H182.445L179.613 188.906H178.541ZM194.081 188.986C193.271 188.986 192.54 188.805 191.889 188.442C191.249 188.069 190.743 187.562 190.369 186.922C189.996 186.272 189.809 185.53 189.809 184.698C189.809 183.856 189.996 183.114 190.369 182.474C190.743 181.834 191.249 181.333 191.889 180.97C192.529 180.608 193.26 180.426 194.081 180.426C194.913 180.426 195.649 180.608 196.289 180.97C196.94 181.333 197.447 181.834 197.809 182.474C198.183 183.114 198.369 183.856 198.369 184.698C198.369 185.53 198.183 186.272 197.809 186.922C197.447 187.562 196.94 188.069 196.289 188.442C195.639 188.805 194.903 188.986 194.081 188.986ZM194.081 187.978C194.689 187.978 195.228 187.845 195.697 187.578C196.167 187.301 196.535 186.917 196.801 186.426C197.079 185.925 197.217 185.349 197.217 184.698C197.217 184.037 197.079 183.461 196.801 182.97C196.535 182.48 196.167 182.101 195.697 181.834C195.228 181.557 194.695 181.418 194.097 181.418C193.5 181.418 192.967 181.557 192.497 181.834C192.028 182.101 191.655 182.48 191.377 182.97C191.1 183.461 190.961 184.037 190.961 184.698C190.961 185.349 191.1 185.925 191.377 186.426C191.655 186.917 192.028 187.301 192.497 187.578C192.967 187.845 193.495 187.978 194.081 187.978ZM204.16 188.986C203.446 188.986 202.822 188.853 202.288 188.586C201.755 188.32 201.339 187.92 201.04 187.386C200.752 186.853 200.608 186.186 200.608 185.386V180.506H201.744V185.258C201.744 186.154 201.963 186.832 202.4 187.29C202.848 187.738 203.472 187.962 204.272 187.962C204.859 187.962 205.366 187.845 205.792 187.61C206.23 187.365 206.56 187.013 206.784 186.554C207.019 186.096 207.136 185.546 207.136 184.906V180.506H208.272V188.906H207.184V186.602L207.36 187.018C207.094 187.637 206.678 188.122 206.112 188.474C205.558 188.816 204.907 188.986 204.16 188.986ZM211.438 188.906V177.034H212.574V188.906H211.438ZM219.079 188.986C218.279 188.986 217.559 188.805 216.919 188.442C216.29 188.08 215.794 187.578 215.431 186.938C215.069 186.288 214.887 185.541 214.887 184.698C214.887 183.845 215.069 183.098 215.431 182.458C215.794 181.818 216.29 181.322 216.919 180.97C217.559 180.608 218.279 180.426 219.079 180.426C219.815 180.426 220.471 180.592 221.047 180.922C221.634 181.253 222.098 181.738 222.439 182.378C222.791 183.008 222.967 183.781 222.967 184.698C222.967 185.605 222.797 186.378 222.455 187.018C222.114 187.658 221.65 188.149 221.063 188.49C220.487 188.821 219.826 188.986 219.079 188.986ZM219.159 187.978C219.757 187.978 220.29 187.845 220.759 187.578C221.239 187.301 221.613 186.917 221.879 186.426C222.157 185.925 222.295 185.349 222.295 184.698C222.295 184.037 222.157 183.461 221.879 182.97C221.613 182.48 221.239 182.101 220.759 181.834C220.29 181.557 219.757 181.418 219.159 181.418C218.573 181.418 218.045 181.557 217.575 181.834C217.106 182.101 216.733 182.48 216.455 182.97C216.178 183.461 216.039 184.037 216.039 184.698C216.039 185.349 216.178 185.925 216.455 186.426C216.733 186.917 217.106 187.301 217.575 187.578C218.045 187.845 218.573 187.978 219.159 187.978ZM222.327 188.906V186.378L222.439 184.682L222.279 182.986V177.034H223.415V188.906H222.327ZM235.055 180.426C235.737 180.426 236.335 180.56 236.847 180.826C237.369 181.082 237.775 181.477 238.063 182.01C238.361 182.544 238.511 183.216 238.511 184.026V188.906H237.375V184.138C237.375 183.253 237.151 182.586 236.703 182.138C236.265 181.68 235.647 181.45 234.847 181.45C234.249 181.45 233.727 181.573 233.279 181.818C232.841 182.053 232.5 182.4 232.255 182.858C232.02 183.306 231.903 183.85 231.903 184.49V188.906H230.767V180.506H231.855V182.81L231.679 182.378C231.945 181.77 232.372 181.296 232.959 180.954C233.545 180.602 234.244 180.426 235.055 180.426ZM245.147 188.986C244.272 188.986 243.504 188.805 242.843 188.442C242.182 188.069 241.664 187.562 241.291 186.922C240.918 186.272 240.731 185.53 240.731 184.698C240.731 183.866 240.907 183.13 241.259 182.49C241.622 181.85 242.112 181.349 242.731 180.986C243.36 180.613 244.064 180.426 244.843 180.426C245.632 180.426 246.331 180.608 246.939 180.97C247.558 181.322 248.043 181.824 248.395 182.474C248.747 183.114 248.923 183.856 248.923 184.698C248.923 184.752 248.918 184.81 248.907 184.874C248.907 184.928 248.907 184.986 248.907 185.05H241.595V184.202H248.299L247.851 184.538C247.851 183.93 247.718 183.392 247.451 182.922C247.195 182.442 246.843 182.069 246.395 181.802C245.947 181.536 245.43 181.402 244.843 181.402C244.267 181.402 243.75 181.536 243.291 181.802C242.832 182.069 242.475 182.442 242.219 182.922C241.963 183.402 241.835 183.952 241.835 184.57V184.746C241.835 185.386 241.974 185.952 242.251 186.442C242.539 186.922 242.934 187.301 243.435 187.578C243.947 187.845 244.528 187.978 245.179 187.978C245.691 187.978 246.166 187.888 246.603 187.706C247.051 187.525 247.435 187.248 247.755 186.874L248.395 187.61C248.022 188.058 247.552 188.4 246.987 188.634C246.432 188.869 245.819 188.986 245.147 188.986ZM253.239 188.906L249.511 180.506H250.695L254.119 188.298H253.559L257.031 180.506H258.151L254.407 188.906H253.239ZM263.085 188.986C262.21 188.986 261.442 188.805 260.781 188.442C260.119 188.069 259.602 187.562 259.229 186.922C258.855 186.272 258.669 185.53 258.669 184.698C258.669 183.866 258.845 183.13 259.197 182.49C259.559 181.85 260.05 181.349 260.669 180.986C261.298 180.613 262.002 180.426 262.781 180.426C263.57 180.426 264.269 180.608 264.877 180.97C265.495 181.322 265.981 181.824 266.333 182.474C266.685 183.114 266.861 183.856 266.861 184.698C266.861 184.752 266.855 184.81 266.845 184.874C266.845 184.928 266.845 184.986 266.845 185.05H259.533V184.202H266.237L265.789 184.538C265.789 183.93 265.655 183.392 265.389 182.922C265.133 182.442 264.781 182.069 264.333 181.802C263.885 181.536 263.367 181.402 262.781 181.402C262.205 181.402 261.687 181.536 261.229 181.802C260.77 182.069 260.413 182.442 260.157 182.922C259.901 183.402 259.773 183.952 259.773 184.57V184.746C259.773 185.386 259.911 185.952 260.189 186.442C260.477 186.922 260.871 187.301 261.373 187.578C261.885 187.845 262.466 187.978 263.117 187.978C263.629 187.978 264.103 187.888 264.541 187.706C264.989 187.525 265.373 187.248 265.693 186.874L266.333 187.61C265.959 188.058 265.49 188.4 264.925 188.634C264.37 188.869 263.757 188.986 263.085 188.986ZM269.173 188.906V180.506H270.261V182.794L270.149 182.394C270.384 181.754 270.778 181.269 271.333 180.938C271.888 180.597 272.576 180.426 273.397 180.426V181.53C273.354 181.53 273.312 181.53 273.269 181.53C273.226 181.52 273.184 181.514 273.141 181.514C272.256 181.514 271.562 181.786 271.061 182.33C270.56 182.864 270.309 183.626 270.309 184.618V188.906H269.173ZM284.118 188.986C283.382 188.986 282.721 188.821 282.134 188.49C281.548 188.149 281.084 187.658 280.742 187.018C280.401 186.378 280.23 185.605 280.23 184.698C280.23 183.781 280.401 183.008 280.742 182.378C281.094 181.738 281.564 181.253 282.15 180.922C282.737 180.592 283.393 180.426 284.118 180.426C284.918 180.426 285.633 180.608 286.262 180.97C286.902 181.322 287.404 181.818 287.766 182.458C288.129 183.098 288.31 183.845 288.31 184.698C288.31 185.541 288.129 186.288 287.766 186.938C287.404 187.578 286.902 188.08 286.262 188.442C285.633 188.805 284.918 188.986 284.118 188.986ZM279.782 188.906V177.034H280.918V182.986L280.758 184.682L280.87 186.378V188.906H279.782ZM284.038 187.978C284.636 187.978 285.169 187.845 285.638 187.578C286.108 187.301 286.481 186.917 286.758 186.426C287.036 185.925 287.174 185.349 287.174 184.698C287.174 184.037 287.036 183.461 286.758 182.97C286.481 182.48 286.108 182.101 285.638 181.834C285.169 181.557 284.636 181.418 284.038 181.418C283.441 181.418 282.902 181.557 282.422 181.834C281.953 182.101 281.58 182.48 281.302 182.97C281.036 183.461 280.902 184.037 280.902 184.698C280.902 185.349 281.036 185.925 281.302 186.426C281.58 186.917 281.953 187.301 282.422 187.578C282.902 187.845 283.441 187.978 284.038 187.978ZM294.194 188.986C293.319 188.986 292.551 188.805 291.89 188.442C291.229 188.069 290.711 187.562 290.338 186.922C289.965 186.272 289.778 185.53 289.778 184.698C289.778 183.866 289.954 183.13 290.306 182.49C290.669 181.85 291.159 181.349 291.778 180.986C292.407 180.613 293.111 180.426 293.89 180.426C294.679 180.426 295.378 180.608 295.986 180.97C296.605 181.322 297.09 181.824 297.442 182.474C297.794 183.114 297.97 183.856 297.97 184.698C297.97 184.752 297.965 184.81 297.954 184.874C297.954 184.928 297.954 184.986 297.954 185.05H290.642V184.202H297.346L296.898 184.538C296.898 183.93 296.765 183.392 296.498 182.922C296.242 182.442 295.89 182.069 295.442 181.802C294.994 181.536 294.477 181.402 293.89 181.402C293.314 181.402 292.797 181.536 292.338 181.802C291.879 182.069 291.522 182.442 291.266 182.922C291.01 183.402 290.882 183.952 290.882 184.57V184.746C290.882 185.386 291.021 185.952 291.298 186.442C291.586 186.922 291.981 187.301 292.482 187.578C292.994 187.845 293.575 187.978 294.226 187.978C294.738 187.978 295.213 187.888 295.65 187.706C296.098 187.525 296.482 187.248 296.802 186.874L297.442 187.61C297.069 188.058 296.599 188.4 296.034 188.634C295.479 188.869 294.866 188.986 294.194 188.986ZM88.5234 200.426C89.206 200.426 89.8034 200.56 90.3154 200.826C90.838 201.082 91.2434 201.477 91.5314 202.01C91.83 202.544 91.9794 203.216 91.9794 204.026V208.906H90.8434V204.138C90.8434 203.253 90.6194 202.586 90.1714 202.138C89.734 201.68 89.1154 201.45 88.3154 201.45C87.718 201.45 87.1954 201.573 86.7474 201.818C86.31 202.053 85.9687 202.4 85.7234 202.858C85.4887 203.306 85.3714 203.85 85.3714 204.49V208.906H84.2354V200.506H85.3234V202.81L85.1474 202.378C85.414 201.77 85.8407 201.296 86.4274 200.954C87.014 200.602 87.7127 200.426 88.5234 200.426ZM98.4719 208.986C97.6612 208.986 96.9305 208.805 96.2799 208.442C95.6399 208.069 95.1332 207.562 94.7599 206.922C94.3865 206.272 94.1999 205.53 94.1999 204.698C94.1999 203.856 94.3865 203.114 94.7599 202.474C95.1332 201.834 95.6399 201.333 96.2799 200.97C96.9199 200.608 97.6505 200.426 98.4719 200.426C99.3039 200.426 100.04 200.608 100.68 200.97C101.331 201.333 101.837 201.834 102.2 202.474C102.573 203.114 102.76 203.856 102.76 204.698C102.76 205.53 102.573 206.272 102.2 206.922C101.837 207.562 101.331 208.069 100.68 208.442C100.029 208.805 99.2932 208.986 98.4719 208.986ZM98.4719 207.978C99.0799 207.978 99.6185 207.845 100.088 207.578C100.557 207.301 100.925 206.917 101.192 206.426C101.469 205.925 101.608 205.349 101.608 204.698C101.608 204.037 101.469 203.461 101.192 202.97C100.925 202.48 100.557 202.101 100.088 201.834C99.6185 201.557 99.0852 201.418 98.4879 201.418C97.8905 201.418 97.3572 201.557 96.8879 201.834C96.4185 202.101 96.0452 202.48 95.7679 202.97C95.4905 203.461 95.3519 204.037 95.3519 204.698C95.3519 205.349 95.4905 205.925 95.7679 206.426C96.0452 206.917 96.4185 207.301 96.8879 207.578C97.3572 207.845 97.8852 207.978 98.4719 207.978ZM105.079 208.906V200.506H106.167V202.794L106.055 202.394C106.29 201.754 106.684 201.269 107.239 200.938C107.794 200.597 108.482 200.426 109.303 200.426V201.53C109.26 201.53 109.218 201.53 109.175 201.53C109.132 201.52 109.09 201.514 109.047 201.514C108.162 201.514 107.468 201.786 106.967 202.33C106.466 202.864 106.215 203.626 106.215 204.618V208.906H105.079ZM121.872 200.426C122.555 200.426 123.147 200.56 123.648 200.826C124.16 201.082 124.555 201.477 124.832 202.01C125.12 202.544 125.264 203.216 125.264 204.026V208.906H124.128V204.138C124.128 203.253 123.915 202.586 123.488 202.138C123.072 201.68 122.48 201.45 121.712 201.45C121.136 201.45 120.635 201.573 120.208 201.818C119.792 202.053 119.467 202.4 119.232 202.858C119.008 203.306 118.896 203.85 118.896 204.49V208.906H117.76V204.138C117.76 203.253 117.547 202.586 117.12 202.138C116.693 201.68 116.096 201.45 115.328 201.45C114.763 201.45 114.267 201.573 113.84 201.818C113.413 202.053 113.083 202.4 112.848 202.858C112.624 203.306 112.512 203.85 112.512 204.49V208.906H111.376V200.506H112.464V202.778L112.288 202.378C112.544 201.77 112.955 201.296 113.52 200.954C114.096 200.602 114.773 200.426 115.552 200.426C116.373 200.426 117.072 200.634 117.648 201.05C118.224 201.456 118.597 202.069 118.768 202.89L118.32 202.714C118.565 202.032 118.997 201.482 119.616 201.066C120.245 200.64 120.997 200.426 121.872 200.426ZM133.609 208.906V207.05L133.561 206.746V203.642C133.561 202.928 133.358 202.378 132.953 201.994C132.558 201.61 131.966 201.418 131.177 201.418C130.633 201.418 130.115 201.509 129.625 201.69C129.134 201.872 128.718 202.112 128.377 202.41L127.865 201.562C128.291 201.2 128.803 200.922 129.401 200.73C129.998 200.528 130.627 200.426 131.289 200.426C132.377 200.426 133.214 200.698 133.801 201.242C134.398 201.776 134.697 202.592 134.697 203.69V208.906H133.609ZM130.713 208.986C130.083 208.986 129.534 208.885 129.065 208.682C128.606 208.469 128.254 208.181 128.009 207.818C127.763 207.445 127.641 207.018 127.641 206.538C127.641 206.101 127.742 205.706 127.945 205.354C128.158 204.992 128.499 204.704 128.969 204.49C129.449 204.266 130.089 204.154 130.889 204.154H133.785V205.002H130.921C130.11 205.002 129.545 205.146 129.225 205.434C128.915 205.722 128.761 206.08 128.761 206.506C128.761 206.986 128.947 207.37 129.321 207.658C129.694 207.946 130.217 208.09 130.889 208.09C131.529 208.09 132.078 207.946 132.537 207.658C133.006 207.36 133.347 206.933 133.561 206.378L133.817 207.162C133.603 207.717 133.23 208.16 132.697 208.49C132.174 208.821 131.513 208.986 130.713 208.986ZM137.782 208.906V197.034H138.918V208.906H137.782ZM151.531 208.906V207.05L151.483 206.746V203.642C151.483 202.928 151.28 202.378 150.875 201.994C150.48 201.61 149.888 201.418 149.099 201.418C148.555 201.418 148.037 201.509 147.547 201.69C147.056 201.872 146.64 202.112 146.299 202.41L145.787 201.562C146.213 201.2 146.725 200.922 147.323 200.73C147.92 200.528 148.549 200.426 149.211 200.426C150.299 200.426 151.136 200.698 151.723 201.242C152.32 201.776 152.619 202.592 152.619 203.69V208.906H151.531ZM148.635 208.986C148.005 208.986 147.456 208.885 146.987 208.682C146.528 208.469 146.176 208.181 145.931 207.818C145.685 207.445 145.563 207.018 145.563 206.538C145.563 206.101 145.664 205.706 145.867 205.354C146.08 204.992 146.421 204.704 146.891 204.49C147.371 204.266 148.011 204.154 148.811 204.154H151.707V205.002H148.843C148.032 205.002 147.467 205.146 147.147 205.434C146.837 205.722 146.683 206.08 146.683 206.506C146.683 206.986 146.869 207.37 147.243 207.658C147.616 207.946 148.139 208.09 148.811 208.09C149.451 208.09 150 207.946 150.459 207.658C150.928 207.36 151.269 206.933 151.483 206.378L151.739 207.162C151.525 207.717 151.152 208.16 150.619 208.49C150.096 208.821 149.435 208.986 148.635 208.986ZM159.288 212.09C158.52 212.09 157.784 211.978 157.08 211.754C156.376 211.53 155.805 211.21 155.368 210.794L155.944 209.93C156.339 210.282 156.824 210.56 157.4 210.762C157.987 210.976 158.605 211.082 159.256 211.082C160.323 211.082 161.107 210.832 161.608 210.33C162.109 209.84 162.36 209.072 162.36 208.026V205.93L162.52 204.49L162.408 203.05V200.506H163.496V207.882C163.496 209.333 163.139 210.394 162.424 211.066C161.72 211.749 160.675 212.09 159.288 212.09ZM159.08 208.586C158.28 208.586 157.56 208.416 156.92 208.074C156.28 207.722 155.773 207.237 155.4 206.618C155.037 206 154.856 205.29 154.856 204.49C154.856 203.69 155.037 202.986 155.4 202.378C155.773 201.76 156.28 201.28 156.92 200.938C157.56 200.597 158.28 200.426 159.08 200.426C159.827 200.426 160.499 200.581 161.096 200.89C161.693 201.2 162.168 201.658 162.52 202.266C162.872 202.874 163.048 203.616 163.048 204.49C163.048 205.365 162.872 206.106 162.52 206.714C162.168 207.322 161.693 207.786 161.096 208.106C160.499 208.426 159.827 208.586 159.08 208.586ZM159.192 207.578C159.811 207.578 160.36 207.45 160.84 207.194C161.32 206.928 161.699 206.565 161.976 206.106C162.253 205.637 162.392 205.098 162.392 204.49C162.392 203.882 162.253 203.349 161.976 202.89C161.699 202.432 161.32 202.074 160.84 201.818C160.36 201.552 159.811 201.418 159.192 201.418C158.584 201.418 158.035 201.552 157.544 201.818C157.064 202.074 156.685 202.432 156.408 202.89C156.141 203.349 156.008 203.882 156.008 204.49C156.008 205.098 156.141 205.637 156.408 206.106C156.685 206.565 157.064 206.928 157.544 207.194C158.035 207.45 158.584 207.578 159.192 207.578ZM171.921 208.906V207.05L171.873 206.746V203.642C171.873 202.928 171.671 202.378 171.265 201.994C170.871 201.61 170.279 201.418 169.489 201.418C168.945 201.418 168.428 201.509 167.937 201.69C167.447 201.872 167.031 202.112 166.689 202.41L166.177 201.562C166.604 201.2 167.116 200.922 167.713 200.73C168.311 200.528 168.94 200.426 169.601 200.426C170.689 200.426 171.527 200.698 172.113 201.242C172.711 201.776 173.009 202.592 173.009 203.69V208.906H171.921ZM169.025 208.986C168.396 208.986 167.847 208.885 167.377 208.682C166.919 208.469 166.567 208.181 166.321 207.818C166.076 207.445 165.953 207.018 165.953 206.538C165.953 206.101 166.055 205.706 166.257 205.354C166.471 204.992 166.812 204.704 167.281 204.49C167.761 204.266 168.401 204.154 169.201 204.154H172.097V205.002H169.233C168.423 205.002 167.857 205.146 167.537 205.434C167.228 205.722 167.073 206.08 167.073 206.506C167.073 206.986 167.26 207.37 167.633 207.658C168.007 207.946 168.529 208.09 169.201 208.09C169.841 208.09 170.391 207.946 170.849 207.658C171.319 207.36 171.66 206.933 171.873 206.378L172.129 207.162C171.916 207.717 171.543 208.16 171.009 208.49C170.487 208.821 169.825 208.986 169.025 208.986ZM176.095 208.906V200.506H177.231V208.906H176.095ZM176.671 198.65C176.436 198.65 176.239 198.57 176.079 198.41C175.919 198.25 175.839 198.058 175.839 197.834C175.839 197.61 175.919 197.424 176.079 197.274C176.239 197.114 176.436 197.034 176.671 197.034C176.905 197.034 177.103 197.109 177.263 197.258C177.423 197.408 177.503 197.594 177.503 197.818C177.503 198.053 177.423 198.25 177.263 198.41C177.113 198.57 176.916 198.65 176.671 198.65ZM184.68 200.426C185.362 200.426 185.96 200.56 186.472 200.826C186.994 201.082 187.4 201.477 187.688 202.01C187.986 202.544 188.136 203.216 188.136 204.026V208.906H187V204.138C187 203.253 186.776 202.586 186.328 202.138C185.89 201.68 185.272 201.45 184.472 201.45C183.874 201.45 183.352 201.573 182.904 201.818C182.466 202.053 182.125 202.4 181.88 202.858C181.645 203.306 181.528 203.85 181.528 204.49V208.906H180.392V200.506H181.48V202.81L181.304 202.378C181.57 201.77 181.997 201.296 182.584 200.954C183.17 200.602 183.869 200.426 184.68 200.426ZM199.728 208.986C198.992 208.986 198.33 208.821 197.744 208.49C197.157 208.149 196.693 207.658 196.352 207.018C196.01 206.378 195.84 205.605 195.84 204.698C195.84 203.781 196.01 203.008 196.352 202.378C196.704 201.738 197.173 201.253 197.76 200.922C198.346 200.592 199.002 200.426 199.728 200.426C200.528 200.426 201.242 200.608 201.872 200.97C202.512 201.322 203.013 201.818 203.376 202.458C203.738 203.098 203.92 203.845 203.92 204.698C203.92 205.541 203.738 206.288 203.376 206.938C203.013 207.578 202.512 208.08 201.872 208.442C201.242 208.805 200.528 208.986 199.728 208.986ZM195.392 208.906V197.034H196.528V202.986L196.368 204.682L196.48 206.378V208.906H195.392ZM199.648 207.978C200.245 207.978 200.778 207.845 201.248 207.578C201.717 207.301 202.09 206.917 202.368 206.426C202.645 205.925 202.784 205.349 202.784 204.698C202.784 204.037 202.645 203.461 202.368 202.97C202.09 202.48 201.717 202.101 201.248 201.834C200.778 201.557 200.245 201.418 199.648 201.418C199.05 201.418 198.512 201.557 198.032 201.834C197.562 202.101 197.189 202.48 196.912 202.97C196.645 203.461 196.512 204.037 196.512 204.698C196.512 205.349 196.645 205.925 196.912 206.426C197.189 206.917 197.562 207.301 198.032 207.578C198.512 207.845 199.05 207.978 199.648 207.978ZM209.707 208.986C208.993 208.986 208.369 208.853 207.835 208.586C207.302 208.32 206.886 207.92 206.587 207.386C206.299 206.853 206.155 206.186 206.155 205.386V200.506H207.291V205.258C207.291 206.154 207.51 206.832 207.947 207.29C208.395 207.738 209.019 207.962 209.819 207.962C210.406 207.962 210.913 207.845 211.339 207.61C211.777 207.365 212.107 207.013 212.331 206.554C212.566 206.096 212.683 205.546 212.683 204.906V200.506H213.819V208.906H212.731V206.602L212.907 207.018C212.641 207.637 212.225 208.122 211.659 208.474C211.105 208.816 210.454 208.986 209.707 208.986ZM219.641 208.986C218.852 208.986 218.244 208.773 217.817 208.346C217.391 207.92 217.177 207.317 217.177 206.538V198.65H218.313V206.474C218.313 206.965 218.436 207.344 218.681 207.61C218.937 207.877 219.3 208.01 219.769 208.01C220.271 208.01 220.687 207.866 221.017 207.578L221.417 208.394C221.193 208.597 220.921 208.746 220.601 208.842C220.292 208.938 219.972 208.986 219.641 208.986ZM215.673 201.45V200.506H220.873V201.45H215.673ZM229.385 208.906L226.217 200.506H227.305L230.185 208.298H229.689L232.649 200.506H233.625L236.553 208.298H236.057L238.985 200.506H240.025L236.841 208.906H235.769L232.953 201.578H233.289L230.457 208.906H229.385ZM241.735 208.906V200.506H242.871V208.906H241.735ZM242.311 198.65C242.077 198.65 241.879 198.57 241.719 198.41C241.559 198.25 241.479 198.058 241.479 197.834C241.479 197.61 241.559 197.424 241.719 197.274C241.879 197.114 242.077 197.034 242.311 197.034C242.546 197.034 242.743 197.109 242.903 197.258C243.063 197.408 243.143 197.594 243.143 197.818C243.143 198.053 243.063 198.25 242.903 198.41C242.754 198.57 242.557 198.65 242.311 198.65ZM248.688 208.986C247.899 208.986 247.291 208.773 246.864 208.346C246.438 207.92 246.224 207.317 246.224 206.538V198.65H247.36V206.474C247.36 206.965 247.483 207.344 247.728 207.61C247.984 207.877 248.347 208.01 248.816 208.01C249.318 208.01 249.734 207.866 250.064 207.578L250.464 208.394C250.24 208.597 249.968 208.746 249.648 208.842C249.339 208.938 249.019 208.986 248.688 208.986ZM244.72 201.45V200.506H249.92V201.45H244.72ZM256.82 200.426C257.503 200.426 258.1 200.56 258.612 200.826C259.135 201.082 259.54 201.477 259.828 202.01C260.127 202.544 260.276 203.216 260.276 204.026V208.906H259.14V204.138C259.14 203.253 258.916 202.586 258.468 202.138C258.031 201.68 257.412 201.45 256.612 201.45C256.015 201.45 255.492 201.573 255.044 201.818C254.607 202.053 254.266 202.4 254.02 202.858C253.786 203.306 253.668 203.85 253.668 204.49V208.906H252.532V197.034H253.668V202.81L253.444 202.378C253.711 201.77 254.138 201.296 254.724 200.954C255.311 200.602 256.01 200.426 256.82 200.426ZM272.668 209.002C271.826 209.002 271.042 208.864 270.316 208.586C269.602 208.298 268.978 207.898 268.444 207.386C267.922 206.864 267.511 206.261 267.212 205.578C266.924 204.885 266.78 204.128 266.78 203.306C266.78 202.485 266.924 201.733 267.212 201.05C267.511 200.357 267.922 199.754 268.444 199.242C268.978 198.72 269.602 198.32 270.316 198.042C271.031 197.754 271.815 197.61 272.668 197.61C273.511 197.61 274.29 197.754 275.004 198.042C275.719 198.32 276.338 198.714 276.86 199.226C277.394 199.738 277.804 200.341 278.092 201.034C278.391 201.728 278.54 202.485 278.54 203.306C278.54 204.128 278.391 204.885 278.092 205.578C277.804 206.272 277.394 206.874 276.86 207.386C276.338 207.898 275.719 208.298 275.004 208.586C274.29 208.864 273.511 209.002 272.668 209.002ZM272.668 207.946C273.34 207.946 273.959 207.834 274.524 207.61C275.1 207.376 275.596 207.05 276.012 206.634C276.439 206.208 276.77 205.717 277.004 205.162C277.239 204.597 277.356 203.978 277.356 203.306C277.356 202.634 277.239 202.021 277.004 201.466C276.77 200.901 276.439 200.41 276.012 199.994C275.596 199.568 275.1 199.242 274.524 199.018C273.959 198.784 273.34 198.666 272.668 198.666C271.996 198.666 271.372 198.784 270.796 199.018C270.22 199.242 269.719 199.568 269.292 199.994C268.876 200.41 268.546 200.901 268.3 201.466C268.066 202.021 267.948 202.634 267.948 203.306C267.948 203.968 268.066 204.581 268.3 205.146C268.546 205.712 268.876 206.208 269.292 206.634C269.719 207.05 270.22 207.376 270.796 207.61C271.372 207.834 271.996 207.946 272.668 207.946ZM285.242 200.426C285.925 200.426 286.522 200.56 287.034 200.826C287.557 201.082 287.962 201.477 288.25 202.01C288.549 202.544 288.698 203.216 288.698 204.026V208.906H287.562V204.138C287.562 203.253 287.338 202.586 286.89 202.138C286.453 201.68 285.834 201.45 285.034 201.45C284.437 201.45 283.914 201.573 283.466 201.818C283.029 202.053 282.687 202.4 282.442 202.858C282.207 203.306 282.09 203.85 282.09 204.49V208.906H280.954V197.034H282.09V202.81L281.866 202.378C282.133 201.77 282.559 201.296 283.146 200.954C283.733 200.602 284.431 200.426 285.242 200.426ZM291.767 208.906V200.506H292.855V202.794L292.743 202.394C292.977 201.754 293.372 201.269 293.927 200.938C294.481 200.597 295.169 200.426 295.991 200.426V201.53C295.948 201.53 295.905 201.53 295.863 201.53C295.82 201.52 295.777 201.514 295.735 201.514C294.849 201.514 294.156 201.786 293.655 202.33C293.153 202.864 292.903 203.626 292.903 204.618V208.906H291.767ZM94.7066 229.002C93.8639 229.002 93.0852 228.864 92.3706 228.586C91.6559 228.298 91.0372 227.898 90.5146 227.386C89.9919 226.874 89.5812 226.272 89.2826 225.578C88.9946 224.885 88.8506 224.128 88.8506 223.306C88.8506 222.485 88.9946 221.728 89.2826 221.034C89.5812 220.341 89.9919 219.738 90.5146 219.226C91.0479 218.714 91.6719 218.32 92.3866 218.042C93.1012 217.754 93.8799 217.61 94.7226 217.61C95.5332 217.61 96.2959 217.749 97.0106 218.026C97.7252 218.293 98.3279 218.698 98.8186 219.242L98.0666 219.994C97.6079 219.525 97.1012 219.189 96.5466 218.986C95.9919 218.773 95.3946 218.666 94.7546 218.666C94.0826 218.666 93.4586 218.784 92.8826 219.018C92.3066 219.242 91.8052 219.568 91.3786 219.994C90.9519 220.41 90.6159 220.901 90.3706 221.466C90.1359 222.021 90.0186 222.634 90.0186 223.306C90.0186 223.978 90.1359 224.597 90.3706 225.162C90.6159 225.717 90.9519 226.208 91.3786 226.634C91.8052 227.05 92.3066 227.376 92.8826 227.61C93.4586 227.834 94.0826 227.946 94.7546 227.946C95.3946 227.946 95.9919 227.84 96.5466 227.626C97.1012 227.413 97.6079 227.072 98.0666 226.602L98.8186 227.354C98.3279 227.898 97.7252 228.309 97.0106 228.586C96.2959 228.864 95.5279 229.002 94.7066 229.002ZM105.391 220.426C106.073 220.426 106.671 220.56 107.183 220.826C107.705 221.082 108.111 221.477 108.399 222.01C108.697 222.544 108.847 223.216 108.847 224.026V228.906H107.711V224.138C107.711 223.253 107.487 222.586 107.039 222.138C106.601 221.68 105.983 221.45 105.183 221.45C104.585 221.45 104.063 221.573 103.615 221.818C103.177 222.053 102.836 222.4 102.591 222.858C102.356 223.306 102.239 223.85 102.239 224.49V228.906H101.103V217.034H102.239V222.81L102.015 222.378C102.281 221.77 102.708 221.296 103.295 220.954C103.881 220.602 104.58 220.426 105.391 220.426ZM115.339 228.986C114.528 228.986 113.798 228.805 113.147 228.442C112.507 228.069 112 227.562 111.627 226.922C111.254 226.272 111.067 225.53 111.067 224.698C111.067 223.856 111.254 223.114 111.627 222.474C112 221.834 112.507 221.333 113.147 220.97C113.787 220.608 114.518 220.426 115.339 220.426C116.171 220.426 116.907 220.608 117.547 220.97C118.198 221.333 118.704 221.834 119.067 222.474C119.44 223.114 119.627 223.856 119.627 224.698C119.627 225.53 119.44 226.272 119.067 226.922C118.704 227.562 118.198 228.069 117.547 228.442C116.896 228.805 116.16 228.986 115.339 228.986ZM115.339 227.978C115.947 227.978 116.486 227.845 116.955 227.578C117.424 227.301 117.792 226.917 118.059 226.426C118.336 225.925 118.475 225.349 118.475 224.698C118.475 224.037 118.336 223.461 118.059 222.97C117.792 222.48 117.424 222.101 116.955 221.834C116.486 221.557 115.952 221.418 115.355 221.418C114.758 221.418 114.224 221.557 113.755 221.834C113.286 222.101 112.912 222.48 112.635 222.97C112.358 223.461 112.219 224.037 112.219 224.698C112.219 225.349 112.358 225.925 112.635 226.426C112.912 226.917 113.286 227.301 113.755 227.578C114.224 227.845 114.752 227.978 115.339 227.978ZM125.29 228.986C124.49 228.986 123.77 228.805 123.13 228.442C122.501 228.08 122.005 227.578 121.642 226.938C121.28 226.288 121.098 225.541 121.098 224.698C121.098 223.845 121.28 223.098 121.642 222.458C122.005 221.818 122.501 221.322 123.13 220.97C123.77 220.608 124.49 220.426 125.29 220.426C126.026 220.426 126.682 220.592 127.258 220.922C127.845 221.253 128.309 221.738 128.65 222.378C129.002 223.008 129.178 223.781 129.178 224.698C129.178 225.605 129.008 226.378 128.666 227.018C128.325 227.658 127.861 228.149 127.274 228.49C126.698 228.821 126.037 228.986 125.29 228.986ZM125.37 227.978C125.968 227.978 126.501 227.845 126.97 227.578C127.45 227.301 127.824 226.917 128.09 226.426C128.368 225.925 128.506 225.349 128.506 224.698C128.506 224.037 128.368 223.461 128.09 222.97C127.824 222.48 127.45 222.101 126.97 221.834C126.501 221.557 125.968 221.418 125.37 221.418C124.784 221.418 124.256 221.557 123.786 221.834C123.317 222.101 122.944 222.48 122.666 222.97C122.389 223.461 122.25 224.037 122.25 224.698C122.25 225.349 122.389 225.925 122.666 226.426C122.944 226.917 123.317 227.301 123.786 227.578C124.256 227.845 124.784 227.978 125.37 227.978ZM128.538 228.906V226.378L128.65 224.682L128.49 222.986V217.034H129.626V228.906H128.538ZM136.214 228.986C135.403 228.986 134.673 228.805 134.022 228.442C133.382 228.069 132.875 227.562 132.502 226.922C132.129 226.272 131.942 225.53 131.942 224.698C131.942 223.856 132.129 223.114 132.502 222.474C132.875 221.834 133.382 221.333 134.022 220.97C134.662 220.608 135.393 220.426 136.214 220.426C137.046 220.426 137.782 220.608 138.422 220.97C139.073 221.333 139.579 221.834 139.942 222.474C140.315 223.114 140.502 223.856 140.502 224.698C140.502 225.53 140.315 226.272 139.942 226.922C139.579 227.562 139.073 228.069 138.422 228.442C137.771 228.805 137.035 228.986 136.214 228.986ZM136.214 227.978C136.822 227.978 137.361 227.845 137.83 227.578C138.299 227.301 138.667 226.917 138.934 226.426C139.211 225.925 139.35 225.349 139.35 224.698C139.35 224.037 139.211 223.461 138.934 222.97C138.667 222.48 138.299 222.101 137.83 221.834C137.361 221.557 136.827 221.418 136.23 221.418C135.633 221.418 135.099 221.557 134.63 221.834C134.161 222.101 133.787 222.48 133.51 222.97C133.233 223.461 133.094 224.037 133.094 224.698C133.094 225.349 133.233 225.925 133.51 226.426C133.787 226.917 134.161 227.301 134.63 227.578C135.099 227.845 135.627 227.978 136.214 227.978ZM145.077 228.986C144.384 228.986 143.728 228.89 143.109 228.698C142.491 228.496 142.005 228.245 141.653 227.946L142.165 227.05C142.507 227.306 142.944 227.53 143.477 227.722C144.011 227.904 144.571 227.994 145.157 227.994C145.957 227.994 146.533 227.872 146.885 227.626C147.237 227.37 147.413 227.034 147.413 226.618C147.413 226.309 147.312 226.069 147.109 225.898C146.917 225.717 146.661 225.584 146.341 225.498C146.021 225.402 145.664 225.322 145.269 225.258C144.875 225.194 144.48 225.12 144.085 225.034C143.701 224.949 143.349 224.826 143.029 224.666C142.709 224.496 142.448 224.266 142.245 223.978C142.053 223.69 141.957 223.306 141.957 222.826C141.957 222.368 142.085 221.957 142.341 221.594C142.597 221.232 142.971 220.949 143.461 220.746C143.963 220.533 144.571 220.426 145.285 220.426C145.829 220.426 146.373 220.501 146.917 220.65C147.461 220.789 147.909 220.976 148.261 221.21L147.765 222.122C147.392 221.866 146.992 221.685 146.565 221.578C146.139 221.461 145.712 221.402 145.285 221.402C144.528 221.402 143.968 221.536 143.605 221.802C143.253 222.058 143.077 222.389 143.077 222.794C143.077 223.114 143.173 223.365 143.365 223.546C143.568 223.728 143.829 223.872 144.149 223.978C144.48 224.074 144.837 224.154 145.221 224.218C145.616 224.282 146.005 224.362 146.389 224.458C146.784 224.544 147.141 224.666 147.461 224.826C147.792 224.976 148.053 225.194 148.245 225.482C148.448 225.76 148.549 226.128 148.549 226.586C148.549 227.077 148.411 227.504 148.133 227.866C147.867 228.218 147.472 228.496 146.949 228.698C146.437 228.89 145.813 228.986 145.077 228.986ZM154.922 220.426C155.604 220.426 156.202 220.56 156.714 220.826C157.236 221.082 157.642 221.477 157.93 222.01C158.228 222.544 158.378 223.216 158.378 224.026V228.906H157.242V224.138C157.242 223.253 157.018 222.586 156.57 222.138C156.132 221.68 155.514 221.45 154.714 221.45C154.116 221.45 153.594 221.573 153.146 221.818C152.708 222.053 152.367 222.4 152.122 222.858C151.887 223.306 151.77 223.85 151.77 224.49V228.906H150.634V217.034H151.77V222.81L151.546 222.378C151.812 221.77 152.239 221.296 152.826 220.954C153.412 220.602 154.111 220.426 154.922 220.426ZM165.874 228.906V217.706H167.058V228.906H165.874ZM176.905 228.986C176.212 228.986 175.556 228.89 174.937 228.698C174.319 228.496 173.833 228.245 173.481 227.946L173.993 227.05C174.335 227.306 174.772 227.53 175.305 227.722C175.839 227.904 176.399 227.994 176.985 227.994C177.785 227.994 178.361 227.872 178.713 227.626C179.065 227.37 179.241 227.034 179.241 226.618C179.241 226.309 179.14 226.069 178.937 225.898C178.745 225.717 178.489 225.584 178.169 225.498C177.849 225.402 177.492 225.322 177.097 225.258C176.703 225.194 176.308 225.12 175.913 225.034C175.529 224.949 175.177 224.826 174.857 224.666C174.537 224.496 174.276 224.266 174.073 223.978C173.881 223.69 173.785 223.306 173.785 222.826C173.785 222.368 173.913 221.957 174.169 221.594C174.425 221.232 174.799 220.949 175.289 220.746C175.791 220.533 176.399 220.426 177.113 220.426C177.657 220.426 178.201 220.501 178.745 220.65C179.289 220.789 179.737 220.976 180.089 221.21L179.593 222.122C179.22 221.866 178.82 221.685 178.393 221.578C177.967 221.461 177.54 221.402 177.113 221.402C176.356 221.402 175.796 221.536 175.433 221.802C175.081 222.058 174.905 222.389 174.905 222.794C174.905 223.114 175.001 223.365 175.193 223.546C175.396 223.728 175.657 223.872 175.977 223.978C176.308 224.074 176.665 224.154 177.049 224.218C177.444 224.282 177.833 224.362 178.217 224.458C178.612 224.544 178.969 224.666 179.289 224.826C179.62 224.976 179.881 225.194 180.073 225.482C180.276 225.76 180.377 226.128 180.377 226.586C180.377 227.077 180.239 227.504 179.961 227.866C179.695 228.218 179.3 228.496 178.777 228.698C178.265 228.89 177.641 228.986 176.905 228.986ZM186.03 228.986C185.155 228.986 184.387 228.805 183.726 228.442C183.065 228.069 182.547 227.562 182.174 226.922C181.801 226.272 181.614 225.53 181.614 224.698C181.614 223.866 181.79 223.13 182.142 222.49C182.505 221.85 182.995 221.349 183.614 220.986C184.243 220.613 184.947 220.426 185.726 220.426C186.515 220.426 187.214 220.608 187.822 220.97C188.441 221.322 188.926 221.824 189.278 222.474C189.63 223.114 189.806 223.856 189.806 224.698C189.806 224.752 189.801 224.81 189.79 224.874C189.79 224.928 189.79 224.986 189.79 225.05H182.478V224.202H189.182L188.734 224.538C188.734 223.93 188.601 223.392 188.334 222.922C188.078 222.442 187.726 222.069 187.278 221.802C186.83 221.536 186.313 221.402 185.726 221.402C185.15 221.402 184.633 221.536 184.174 221.802C183.715 222.069 183.358 222.442 183.102 222.922C182.846 223.402 182.718 223.952 182.718 224.57V224.746C182.718 225.386 182.857 225.952 183.134 226.442C183.422 226.922 183.817 227.301 184.318 227.578C184.83 227.845 185.411 227.978 186.062 227.978C186.574 227.978 187.049 227.888 187.486 227.706C187.934 227.525 188.318 227.248 188.638 226.874L189.278 227.61C188.905 228.058 188.435 228.4 187.87 228.634C187.315 228.869 186.702 228.986 186.03 228.986ZM195.686 228.986C194.812 228.986 194.044 228.805 193.382 228.442C192.721 228.069 192.204 227.562 191.83 226.922C191.457 226.272 191.27 225.53 191.27 224.698C191.27 223.866 191.446 223.13 191.798 222.49C192.161 221.85 192.652 221.349 193.27 220.986C193.9 220.613 194.604 220.426 195.382 220.426C196.172 220.426 196.87 220.608 197.478 220.97C198.097 221.322 198.582 221.824 198.934 222.474C199.286 223.114 199.462 223.856 199.462 224.698C199.462 224.752 199.457 224.81 199.446 224.874C199.446 224.928 199.446 224.986 199.446 225.05H192.134V224.202H198.838L198.39 224.538C198.39 223.93 198.257 223.392 197.99 222.922C197.734 222.442 197.382 222.069 196.934 221.802C196.486 221.536 195.969 221.402 195.382 221.402C194.806 221.402 194.289 221.536 193.83 221.802C193.372 222.069 193.014 222.442 192.758 222.922C192.502 223.402 192.374 223.952 192.374 224.57V224.746C192.374 225.386 192.513 225.952 192.79 226.442C193.078 226.922 193.473 227.301 193.974 227.578C194.486 227.845 195.068 227.978 195.718 227.978C196.23 227.978 196.705 227.888 197.142 227.706C197.59 227.525 197.974 227.248 198.294 226.874L198.934 227.61C198.561 228.058 198.092 228.4 197.526 228.634C196.972 228.869 196.358 228.986 195.686 228.986ZM208.618 228.986C207.829 228.986 207.221 228.773 206.794 228.346C206.367 227.92 206.154 227.317 206.154 226.538V218.65H207.29V226.474C207.29 226.965 207.413 227.344 207.658 227.61C207.914 227.877 208.277 228.01 208.746 228.01C209.247 228.01 209.663 227.866 209.994 227.578L210.394 228.394C210.17 228.597 209.898 228.746 209.578 228.842C209.269 228.938 208.949 228.986 208.618 228.986ZM204.65 221.45V220.506H209.85V221.45H204.65ZM216.75 220.426C217.433 220.426 218.03 220.56 218.542 220.826C219.065 221.082 219.47 221.477 219.758 222.01C220.057 222.544 220.206 223.216 220.206 224.026V228.906H219.07V224.138C219.07 223.253 218.846 222.586 218.398 222.138C217.961 221.68 217.342 221.45 216.542 221.45C215.945 221.45 215.422 221.573 214.974 221.818C214.537 222.053 214.195 222.4 213.95 222.858C213.715 223.306 213.598 223.85 213.598 224.49V228.906H212.462V217.034H213.598V222.81L213.374 222.378C213.641 221.77 214.067 221.296 214.654 220.954C215.241 220.602 215.939 220.426 216.75 220.426ZM226.842 228.986C225.968 228.986 225.2 228.805 224.538 228.442C223.877 228.069 223.36 227.562 222.986 226.922C222.613 226.272 222.426 225.53 222.426 224.698C222.426 223.866 222.602 223.13 222.954 222.49C223.317 221.85 223.808 221.349 224.426 220.986C225.056 220.613 225.76 220.426 226.538 220.426C227.328 220.426 228.026 220.608 228.634 220.97C229.253 221.322 229.738 221.824 230.09 222.474C230.442 223.114 230.618 223.856 230.618 224.698C230.618 224.752 230.613 224.81 230.602 224.874C230.602 224.928 230.602 224.986 230.602 225.05H223.29V224.202H229.994L229.546 224.538C229.546 223.93 229.413 223.392 229.146 222.922C228.89 222.442 228.538 222.069 228.09 221.802C227.642 221.536 227.125 221.402 226.538 221.402C225.962 221.402 225.445 221.536 224.986 221.802C224.528 222.069 224.17 222.442 223.914 222.922C223.658 223.402 223.53 223.952 223.53 224.57V224.746C223.53 225.386 223.669 225.952 223.946 226.442C224.234 226.922 224.629 227.301 225.13 227.578C225.642 227.845 226.224 227.978 226.874 227.978C227.386 227.978 227.861 227.888 228.298 227.706C228.746 227.525 229.13 227.248 229.45 226.874L230.09 227.61C229.717 228.058 229.248 228.4 228.682 228.634C228.128 228.869 227.514 228.986 226.842 228.986ZM232.931 228.906V220.506H234.019V222.794L233.907 222.394C234.141 221.754 234.536 221.269 235.091 220.938C235.645 220.597 236.333 220.426 237.155 220.426V221.53C237.112 221.53 237.069 221.53 237.027 221.53C236.984 221.52 236.941 221.514 236.899 221.514C236.013 221.514 235.32 221.786 234.819 222.33C234.317 222.864 234.067 223.626 234.067 224.618V228.906H232.931ZM242.717 228.986C241.843 228.986 241.075 228.805 240.413 228.442C239.752 228.069 239.235 227.562 238.861 226.922C238.488 226.272 238.301 225.53 238.301 224.698C238.301 223.866 238.477 223.13 238.829 222.49C239.192 221.85 239.683 221.349 240.301 220.986C240.931 220.613 241.635 220.426 242.413 220.426C243.203 220.426 243.901 220.608 244.509 220.97C245.128 221.322 245.613 221.824 245.965 222.474C246.317 223.114 246.493 223.856 246.493 224.698C246.493 224.752 246.488 224.81 246.477 224.874C246.477 224.928 246.477 224.986 246.477 225.05H239.165V224.202H245.869L245.421 224.538C245.421 223.93 245.288 223.392 245.021 222.922C244.765 222.442 244.413 222.069 243.965 221.802C243.517 221.536 243 221.402 242.413 221.402C241.837 221.402 241.32 221.536 240.861 221.802C240.403 222.069 240.045 222.442 239.789 222.922C239.533 223.402 239.405 223.952 239.405 224.57V224.746C239.405 225.386 239.544 225.952 239.821 226.442C240.109 226.922 240.504 227.301 241.005 227.578C241.517 227.845 242.099 227.978 242.749 227.978C243.261 227.978 243.736 227.888 244.173 227.706C244.621 227.525 245.005 227.248 245.325 226.874L245.965 227.61C245.592 228.058 245.123 228.4 244.557 228.634C244.003 228.869 243.389 228.986 242.717 228.986ZM252.993 228.906V220.506H254.129V228.906H252.993ZM253.569 218.65C253.335 218.65 253.137 218.57 252.977 218.41C252.817 218.25 252.737 218.058 252.737 217.834C252.737 217.61 252.817 217.424 252.977 217.274C253.137 217.114 253.335 217.034 253.569 217.034C253.804 217.034 254.001 217.109 254.161 217.258C254.321 217.408 254.401 217.594 254.401 217.818C254.401 218.053 254.321 218.25 254.161 218.41C254.012 218.57 253.815 218.65 253.569 218.65ZM259.546 228.986C258.853 228.986 258.197 228.89 257.578 228.698C256.959 228.496 256.474 228.245 256.122 227.946L256.634 227.05C256.975 227.306 257.413 227.53 257.946 227.722C258.479 227.904 259.039 227.994 259.626 227.994C260.426 227.994 261.002 227.872 261.354 227.626C261.706 227.37 261.882 227.034 261.882 226.618C261.882 226.309 261.781 226.069 261.578 225.898C261.386 225.717 261.13 225.584 260.81 225.498C260.49 225.402 260.133 225.322 259.738 225.258C259.343 225.194 258.949 225.12 258.554 225.034C258.17 224.949 257.818 224.826 257.498 224.666C257.178 224.496 256.917 224.266 256.714 223.978C256.522 223.69 256.426 223.306 256.426 222.826C256.426 222.368 256.554 221.957 256.81 221.594C257.066 221.232 257.439 220.949 257.93 220.746C258.431 220.533 259.039 220.426 259.754 220.426C260.298 220.426 260.842 220.501 261.386 220.65C261.93 220.789 262.378 220.976 262.73 221.21L262.234 222.122C261.861 221.866 261.461 221.685 261.034 221.578C260.607 221.461 260.181 221.402 259.754 221.402C258.997 221.402 258.437 221.536 258.074 221.802C257.722 222.058 257.546 222.389 257.546 222.794C257.546 223.114 257.642 223.365 257.834 223.546C258.037 223.728 258.298 223.872 258.618 223.978C258.949 224.074 259.306 224.154 259.69 224.218C260.085 224.282 260.474 224.362 260.858 224.458C261.253 224.544 261.61 224.666 261.93 224.826C262.261 224.976 262.522 225.194 262.714 225.482C262.917 225.76 263.018 226.128 263.018 226.586C263.018 227.077 262.879 227.504 262.602 227.866C262.335 228.218 261.941 228.496 261.418 228.698C260.906 228.89 260.282 228.986 259.546 228.986ZM269.29 228.906V217.034H270.426V228.906H269.29ZM273.587 228.906V220.506H274.723V228.906H273.587ZM274.163 218.65C273.928 218.65 273.731 218.57 273.571 218.41C273.411 218.25 273.331 218.058 273.331 217.834C273.331 217.61 273.411 217.424 273.571 217.274C273.731 217.114 273.928 217.034 274.163 217.034C274.398 217.034 274.595 217.109 274.755 217.258C274.915 217.408 274.995 217.594 274.995 217.818C274.995 218.053 274.915 218.25 274.755 218.41C274.606 218.57 274.408 218.65 274.163 218.65ZM278.076 228.906V219.45C278.076 218.704 278.294 218.101 278.732 217.642C279.169 217.184 279.798 216.954 280.62 216.954C280.94 216.954 281.249 216.997 281.548 217.082C281.846 217.168 282.097 217.301 282.3 217.482L281.916 218.33C281.756 218.192 281.569 218.09 281.356 218.026C281.142 217.952 280.913 217.914 280.668 217.914C280.188 217.914 279.82 218.048 279.564 218.314C279.308 218.581 279.18 218.976 279.18 219.498V220.778L279.212 221.306V228.906H278.076ZM276.572 221.45V220.506H281.772V221.45H276.572ZM286.733 228.986C285.858 228.986 285.09 228.805 284.429 228.442C283.768 228.069 283.25 227.562 282.877 226.922C282.504 226.272 282.317 225.53 282.317 224.698C282.317 223.866 282.493 223.13 282.845 222.49C283.208 221.85 283.698 221.349 284.317 220.986C284.946 220.613 285.65 220.426 286.429 220.426C287.218 220.426 287.917 220.608 288.525 220.97C289.144 221.322 289.629 221.824 289.981 222.474C290.333 223.114 290.509 223.856 290.509 224.698C290.509 224.752 290.504 224.81 290.493 224.874C290.493 224.928 290.493 224.986 290.493 225.05H283.181V224.202H289.885L289.437 224.538C289.437 223.93 289.304 223.392 289.037 222.922C288.781 222.442 288.429 222.069 287.981 221.802C287.533 221.536 287.016 221.402 286.429 221.402C285.853 221.402 285.336 221.536 284.877 221.802C284.418 222.069 284.061 222.442 283.805 222.922C283.549 223.402 283.421 223.952 283.421 224.57V224.746C283.421 225.386 283.56 225.952 283.837 226.442C284.125 226.922 284.52 227.301 285.021 227.578C285.533 227.845 286.114 227.978 286.765 227.978C287.277 227.978 287.752 227.888 288.189 227.706C288.637 227.525 289.021 227.248 289.341 226.874L289.981 227.61C289.608 228.058 289.138 228.4 288.573 228.634C288.018 228.869 287.405 228.986 286.733 228.986ZM147.312 248.906V247.05L147.264 246.746V243.642C147.264 242.928 147.061 242.378 146.656 241.994C146.261 241.61 145.669 241.418 144.88 241.418C144.336 241.418 143.819 241.509 143.328 241.69C142.837 241.872 142.421 242.112 142.08 242.41L141.568 241.562C141.995 241.2 142.507 240.922 143.104 240.73C143.701 240.528 144.331 240.426 144.992 240.426C146.08 240.426 146.917 240.698 147.504 241.242C148.101 241.776 148.4 242.592 148.4 243.69V248.906H147.312ZM144.416 248.986C143.787 248.986 143.237 248.885 142.768 248.682C142.309 248.469 141.957 248.181 141.712 247.818C141.467 247.445 141.344 247.018 141.344 246.538C141.344 246.101 141.445 245.706 141.648 245.354C141.861 244.992 142.203 244.704 142.672 244.49C143.152 244.266 143.792 244.154 144.592 244.154H147.488V245.002H144.624C143.813 245.002 143.248 245.146 142.928 245.434C142.619 245.722 142.464 246.08 142.464 246.506C142.464 246.986 142.651 247.37 143.024 247.658C143.397 247.946 143.92 248.09 144.592 248.09C145.232 248.09 145.781 247.946 146.24 247.658C146.709 247.36 147.051 246.933 147.264 246.378L147.52 247.162C147.307 247.717 146.933 248.16 146.4 248.49C145.877 248.821 145.216 248.986 144.416 248.986ZM151.677 248.906V239.45C151.677 238.704 151.896 238.101 152.333 237.642C152.771 237.184 153.4 236.954 154.221 236.954C154.541 236.954 154.851 236.997 155.149 237.082C155.448 237.168 155.699 237.301 155.901 237.482L155.517 238.33C155.357 238.192 155.171 238.09 154.957 238.026C154.744 237.952 154.515 237.914 154.269 237.914C153.789 237.914 153.421 238.048 153.165 238.314C152.909 238.581 152.781 238.976 152.781 239.498V240.778L152.813 241.306V248.906H151.677ZM150.173 241.45V240.506H155.373V241.45H150.173ZM159.563 248.986C158.774 248.986 158.166 248.773 157.739 248.346C157.313 247.92 157.099 247.317 157.099 246.538V238.65H158.235V246.474C158.235 246.965 158.358 247.344 158.603 247.61C158.859 247.877 159.222 248.01 159.691 248.01C160.193 248.01 160.609 247.866 160.939 247.578L161.339 248.394C161.115 248.597 160.843 248.746 160.523 248.842C160.214 248.938 159.894 248.986 159.563 248.986ZM155.595 241.45V240.506H160.795V241.45H155.595ZM166.678 248.986C165.804 248.986 165.036 248.805 164.374 248.442C163.713 248.069 163.196 247.562 162.822 246.922C162.449 246.272 162.262 245.53 162.262 244.698C162.262 243.866 162.438 243.13 162.79 242.49C163.153 241.85 163.644 241.349 164.262 240.986C164.892 240.613 165.596 240.426 166.374 240.426C167.164 240.426 167.862 240.608 168.47 240.97C169.089 241.322 169.574 241.824 169.926 242.474C170.278 243.114 170.454 243.856 170.454 244.698C170.454 244.752 170.449 244.81 170.438 244.874C170.438 244.928 170.438 244.986 170.438 245.05H163.126V244.202H169.83L169.382 244.538C169.382 243.93 169.249 243.392 168.982 242.922C168.726 242.442 168.374 242.069 167.926 241.802C167.478 241.536 166.961 241.402 166.374 241.402C165.798 241.402 165.281 241.536 164.822 241.802C164.364 242.069 164.006 242.442 163.75 242.922C163.494 243.402 163.366 243.952 163.366 244.57V244.746C163.366 245.386 163.505 245.952 163.782 246.442C164.07 246.922 164.465 247.301 164.966 247.578C165.478 247.845 166.06 247.978 166.71 247.978C167.222 247.978 167.697 247.888 168.134 247.706C168.582 247.525 168.966 247.248 169.286 246.874L169.926 247.61C169.553 248.058 169.084 248.4 168.518 248.634C167.964 248.869 167.35 248.986 166.678 248.986ZM172.767 248.906V240.506H173.855V242.794L173.743 242.394C173.977 241.754 174.372 241.269 174.927 240.938C175.481 240.597 176.169 240.426 176.991 240.426V241.53C176.948 241.53 176.905 241.53 176.863 241.53C176.82 241.52 176.777 241.514 176.735 241.514C175.849 241.514 175.156 241.786 174.655 242.33C174.153 242.864 173.903 243.626 173.903 244.618V248.906H172.767ZM188.64 248.906V247.05L188.592 246.746V243.642C188.592 242.928 188.389 242.378 187.984 241.994C187.589 241.61 186.997 241.418 186.208 241.418C185.664 241.418 185.147 241.509 184.656 241.69C184.165 241.872 183.749 242.112 183.408 242.41L182.896 241.562C183.323 241.2 183.835 240.922 184.432 240.73C185.029 240.528 185.659 240.426 186.32 240.426C187.408 240.426 188.245 240.698 188.832 241.242C189.429 241.776 189.728 242.592 189.728 243.69V248.906H188.64ZM185.744 248.986C185.115 248.986 184.565 248.885 184.096 248.682C183.637 248.469 183.285 248.181 183.04 247.818C182.795 247.445 182.672 247.018 182.672 246.538C182.672 246.101 182.773 245.706 182.976 245.354C183.189 244.992 183.531 244.704 184 244.49C184.48 244.266 185.12 244.154 185.92 244.154H188.816V245.002H185.952C185.141 245.002 184.576 245.146 184.256 245.434C183.947 245.722 183.792 246.08 183.792 246.506C183.792 246.986 183.979 247.37 184.352 247.658C184.725 247.946 185.248 248.09 185.92 248.09C186.56 248.09 187.109 247.946 187.568 247.658C188.037 247.36 188.379 246.933 188.592 246.378L188.848 247.162C188.635 247.717 188.261 248.16 187.728 248.49C187.205 248.821 186.544 248.986 185.744 248.986ZM197.001 248.906V237.034H198.137V248.906H197.001ZM204.722 248.986C203.911 248.986 203.181 248.805 202.53 248.442C201.89 248.069 201.383 247.562 201.01 246.922C200.637 246.272 200.45 245.53 200.45 244.698C200.45 243.856 200.637 243.114 201.01 242.474C201.383 241.834 201.89 241.333 202.53 240.97C203.17 240.608 203.901 240.426 204.722 240.426C205.554 240.426 206.29 240.608 206.93 240.97C207.581 241.333 208.087 241.834 208.45 242.474C208.823 243.114 209.01 243.856 209.01 244.698C209.01 245.53 208.823 246.272 208.45 246.922C208.087 247.562 207.581 248.069 206.93 248.442C206.279 248.805 205.543 248.986 204.722 248.986ZM204.722 247.978C205.33 247.978 205.869 247.845 206.338 247.578C206.807 247.301 207.175 246.917 207.442 246.426C207.719 245.925 207.858 245.349 207.858 244.698C207.858 244.037 207.719 243.461 207.442 242.97C207.175 242.48 206.807 242.101 206.338 241.834C205.869 241.557 205.335 241.418 204.738 241.418C204.141 241.418 203.607 241.557 203.138 241.834C202.669 242.101 202.295 242.48 202.018 242.97C201.741 243.461 201.602 244.037 201.602 244.698C201.602 245.349 201.741 245.925 202.018 246.426C202.295 246.917 202.669 247.301 203.138 247.578C203.607 247.845 204.135 247.978 204.722 247.978ZM213.585 248.986C212.892 248.986 212.236 248.89 211.617 248.698C210.998 248.496 210.513 248.245 210.161 247.946L210.673 247.05C211.014 247.306 211.452 247.53 211.985 247.722C212.518 247.904 213.078 247.994 213.665 247.994C214.465 247.994 215.041 247.872 215.393 247.626C215.745 247.37 215.921 247.034 215.921 246.618C215.921 246.309 215.82 246.069 215.617 245.898C215.425 245.717 215.169 245.584 214.849 245.498C214.529 245.402 214.172 245.322 213.777 245.258C213.382 245.194 212.988 245.12 212.593 245.034C212.209 244.949 211.857 244.826 211.537 244.666C211.217 244.496 210.956 244.266 210.753 243.978C210.561 243.69 210.465 243.306 210.465 242.826C210.465 242.368 210.593 241.957 210.849 241.594C211.105 241.232 211.478 240.949 211.969 240.746C212.47 240.533 213.078 240.426 213.793 240.426C214.337 240.426 214.881 240.501 215.425 240.65C215.969 240.789 216.417 240.976 216.769 241.21L216.273 242.122C215.9 241.866 215.5 241.685 215.073 241.578C214.646 241.461 214.22 241.402 213.793 241.402C213.036 241.402 212.476 241.536 212.113 241.802C211.761 242.058 211.585 242.389 211.585 242.794C211.585 243.114 211.681 243.365 211.873 243.546C212.076 243.728 212.337 243.872 212.657 243.978C212.988 244.074 213.345 244.154 213.729 244.218C214.124 244.282 214.513 244.362 214.897 244.458C215.292 244.544 215.649 244.666 215.969 244.826C216.3 244.976 216.561 245.194 216.753 245.482C216.956 245.76 217.057 246.128 217.057 246.586C217.057 247.077 216.918 247.504 216.641 247.866C216.374 248.218 215.98 248.496 215.457 248.698C214.945 248.89 214.321 248.986 213.585 248.986ZM221.398 248.986C220.704 248.986 220.048 248.89 219.43 248.698C218.811 248.496 218.326 248.245 217.974 247.946L218.486 247.05C218.827 247.306 219.264 247.53 219.798 247.722C220.331 247.904 220.891 247.994 221.478 247.994C222.278 247.994 222.854 247.872 223.206 247.626C223.558 247.37 223.734 247.034 223.734 246.618C223.734 246.309 223.632 246.069 223.43 245.898C223.238 245.717 222.982 245.584 222.662 245.498C222.342 245.402 221.984 245.322 221.59 245.258C221.195 245.194 220.8 245.12 220.406 245.034C220.022 244.949 219.67 244.826 219.35 244.666C219.03 244.496 218.768 244.266 218.566 243.978C218.374 243.69 218.278 243.306 218.278 242.826C218.278 242.368 218.406 241.957 218.662 241.594C218.918 241.232 219.291 240.949 219.782 240.746C220.283 240.533 220.891 240.426 221.606 240.426C222.15 240.426 222.694 240.501 223.238 240.65C223.782 240.789 224.23 240.976 224.582 241.21L224.086 242.122C223.712 241.866 223.312 241.685 222.886 241.578C222.459 241.461 222.032 241.402 221.606 241.402C220.848 241.402 220.288 241.536 219.926 241.802C219.574 242.058 219.398 242.389 219.398 242.794C219.398 243.114 219.494 243.365 219.686 243.546C219.888 243.728 220.15 243.872 220.47 243.978C220.8 244.074 221.158 244.154 221.542 244.218C221.936 244.282 222.326 244.362 222.71 244.458C223.104 244.544 223.462 244.666 223.782 244.826C224.112 244.976 224.374 245.194 224.566 245.482C224.768 245.76 224.87 246.128 224.87 246.586C224.87 247.077 224.731 247.504 224.454 247.866C224.187 248.218 223.792 248.496 223.27 248.698C222.758 248.89 222.134 248.986 221.398 248.986ZM227.066 248.986C226.831 248.986 226.629 248.901 226.458 248.73C226.298 248.56 226.218 248.352 226.218 248.106C226.218 247.85 226.298 247.642 226.458 247.482C226.629 247.322 226.831 247.242 227.066 247.242C227.301 247.242 227.498 247.322 227.658 247.482C227.829 247.642 227.914 247.85 227.914 248.106C227.914 248.352 227.829 248.56 227.658 248.73C227.498 248.901 227.301 248.986 227.066 248.986ZM229.391 240.938L230.095 237.994L230.223 238.666C229.978 238.666 229.77 238.592 229.599 238.442C229.439 238.282 229.359 238.074 229.359 237.818C229.359 237.562 229.439 237.354 229.599 237.194C229.77 237.034 229.972 236.954 230.207 236.954C230.452 236.954 230.65 237.04 230.799 237.21C230.959 237.37 231.039 237.573 231.039 237.818C231.039 237.904 231.034 237.989 231.023 238.074C231.012 238.16 230.991 238.256 230.959 238.362C230.938 238.458 230.9 238.581 230.847 238.73L230.159 240.938H229.391ZM232.111 240.938L232.815 237.994L232.943 238.666C232.698 238.666 232.49 238.592 232.319 238.442C232.159 238.282 232.079 238.074 232.079 237.818C232.079 237.562 232.159 237.354 232.319 237.194C232.49 237.034 232.692 236.954 232.927 236.954C233.172 236.954 233.37 237.04 233.519 237.21C233.679 237.37 233.759 237.573 233.759 237.818C233.759 237.904 233.754 237.989 233.743 238.074C233.732 238.16 233.711 238.256 233.679 238.362C233.658 238.458 233.62 238.581 233.567 238.73L232.879 240.938H232.111Z" fill="#0A0A0A"></path>
  <path d="M186.876 157.02C186.424 157.021 185.98 157.139 185.586 157.362C186.14 155.929 187.058 154.665 188.251 153.695C188.319 153.639 188.375 153.57 188.417 153.492C188.458 153.414 188.484 153.329 188.493 153.241C188.501 153.153 188.492 153.064 188.467 152.979C188.441 152.895 188.399 152.816 188.342 152.748C188.286 152.68 188.217 152.623 188.139 152.582C188.061 152.54 187.976 152.515 187.888 152.506C187.8 152.498 187.711 152.506 187.626 152.532C187.542 152.558 187.463 152.6 187.395 152.656C184.951 154.643 183.863 157.393 183.863 159.098C183.867 159.7 184.047 160.289 184.38 160.791C184.713 161.294 185.185 161.688 185.739 161.927C186.097 162.101 186.49 162.192 186.888 162.196C187.238 162.213 187.589 162.159 187.917 162.036C188.246 161.914 188.547 161.726 188.801 161.484C189.055 161.242 189.257 160.951 189.395 160.628C189.534 160.306 189.605 159.959 189.605 159.608C189.605 159.257 189.534 158.91 189.395 158.587C189.257 158.265 189.055 157.974 188.801 157.732C188.547 157.49 188.246 157.302 187.917 157.179C187.589 157.057 187.238 157.003 186.888 157.02H186.876Z" fill="#F6901D"></path>
  <path d="M193.683 157.021C193.231 157.021 192.787 157.139 192.394 157.363C192.948 155.931 193.864 154.667 195.052 153.696C195.127 153.642 195.189 153.574 195.236 153.495C195.283 153.417 195.314 153.329 195.326 153.238C195.338 153.147 195.331 153.055 195.306 152.967C195.281 152.878 195.238 152.796 195.18 152.725C195.122 152.654 195.05 152.596 194.968 152.554C194.887 152.512 194.797 152.487 194.706 152.48C194.614 152.474 194.523 152.486 194.436 152.517C194.35 152.547 194.27 152.595 194.203 152.657C191.758 154.643 190.671 157.393 190.671 159.098C190.674 159.694 190.848 160.277 191.173 160.776C191.498 161.276 191.96 161.671 192.504 161.916C192.871 162.094 193.275 162.186 193.683 162.184C194.034 162.201 194.384 162.147 194.713 162.025C195.042 161.902 195.342 161.714 195.596 161.472C195.85 161.23 196.053 160.939 196.191 160.617C196.329 160.294 196.4 159.947 196.4 159.596C196.4 159.245 196.329 158.898 196.191 158.576C196.053 158.253 195.85 157.962 195.596 157.72C195.342 157.478 195.042 157.29 194.713 157.168C194.384 157.046 194.034 156.991 193.683 157.008V157.021Z" fill="#F6901D"></path>
  <defs>
    <filter id="filter0_d_16_970" x="3.79663" y="0.792969" width="343.304" height="403.899" color-interpolation-filters="sRGB">
      <feFlood flood-opacity="0" result="BackgroundImageFix"></feFlood>
      <feColorMatrix in="SourceAlpha" type="matrix" values="0 0 0 0 0 0 0 0 0 0 0 0 0 0 0 0 0 0 127 0" result="hardAlpha"></feColorMatrix>
      <feOffset></feOffset>
      <feGaussianBlur stdDeviation="10"></feGaussianBlur>
      <feComposite in2="hardAlpha" operator="out"></feComposite>
      <feColorMatrix type="matrix" values="0 0 0 0 0 0 0 0 0 0 0 0 0 0 0 0 0 0 0.1 0"></feColorMatrix>
      <feBlend mode="normal" in2="BackgroundImageFix" result="effect1_dropShadow_16_970"></feBlend>
      <feBlend mode="normal" in="SourceGraphic" in2="effect1_dropShadow_16_970" result="shape"></feBlend>
    </filter>
  </defs>
</svg>
